<svg xmlns="http://www.w3.org/2000/svg" xmlns:xlink="http://www.w3.org/1999/xlink" width="1000" height="274" viewBox="0 0 1000 274" role="img" aria-label="수업은 만들기까지, ASBG UOS는 올리기와 지키기를 맡습니다">
<metadata>Identity, pixel icons and circuit motif from asbg-uos-web (src/components/icons.tsx, src/components/diagrams/Loop.tsx). Lettering: Pretendard (Kil Hyung-jin, SIL OFL 1.1), Geist and Geist Mono, copyright 2024 The Geist Project Authors, SIL Open Font License 1.1.</metadata>
<defs>
<clipPath id="cb"><rect x="0.5" y="0.5" width="999" height="273" rx="16"/></clipPath>
<pattern id="cdots" width="24" height="24" patternUnits="userSpaceOnUse"><rect x="11" y="11" width="2" height="2" fill="#0B0F17" opacity="0.12"/></pattern>
</defs>
<rect x="0.5" y="0.5" width="999" height="273" rx="16" fill="#FFFFFF" stroke="#E7E7E8"/>
<g clip-path="url(#cb)"><rect width="1000" height="274" fill="url(#cdots)"/><rect x="36" y="36" width="284" height="160" fill="#FFFFFF" stroke="#C9CACC" stroke-width="1.5"/><path d="M0 2h16v1h-16zM0 3h1v1h-1zM15 3h1v1h-1zM0 4h1v1h-1zM15 4h1v1h-1zM0 5h1v1h-1zM2 5h2v1h-2zM15 5h1v1h-1zM0 6h1v1h-1zM3 6h2v1h-2zM15 6h1v1h-1zM0 7h1v1h-1zM4 7h2v1h-2zM15 7h1v1h-1zM0 8h1v1h-1zM3 8h2v1h-2zM15 8h1v1h-1zM0 9h1v1h-1zM2 9h2v1h-2zM15 9h1v1h-1zM0 10h1v1h-1zM7 10h6v1h-6zM15 10h1v1h-1zM0 11h1v1h-1zM15 11h1v1h-1zM0 12h1v1h-1zM15 12h1v1h-1zM0 13h16v1h-16z" transform="translate(56 56)" fill="#ACADB0"/><path d="M284.65 59.78L284.65 59.23L283.54 59.23L283.54 59.78C283.53 61.13 281.9 62.37 279.93 62.63L280.36 63.51C281.99 63.24 283.43 62.39 284.09 61.21C284.75 62.39 286.19 63.24 287.84 63.51L288.25 62.63C286.28 62.37 284.64 61.12 284.65 59.78ZM279.49 65.37L283.54 65.37L283.54 68.95L284.58 68.95L284.58 65.37L288.67 65.37L288.67 64.5L279.49 64.5ZM293.22 59.35C291.68 59.34 290.57 60.32 290.58 61.69C290.57 63.08 291.68 64.05 293.22 64.05C294.55 64.05 295.59 63.27 295.79 62.12L297.75 62.12L297.75 64.29L298.82 64.29L298.82 58.89L297.75 58.89L297.75 61.24L295.79 61.24C295.57 60.11 294.54 59.34 293.22 59.35ZM291.6 61.69C291.59 60.82 292.27 60.23 293.22 60.24C294.15 60.23 294.81 60.82 294.81 61.69C294.81 62.55 294.15 63.15 293.22 63.15C292.27 63.15 291.59 62.55 291.6 61.69ZM292.26 68.83L298.82 68.83L298.82 64.78L297.75 64.78L297.75 65.94L293.32 65.94L293.32 64.78L292.26 64.78ZM293.32 67.96L293.32 66.79L297.75 66.79L297.75 67.96Z" fill="#767A7E"/><path d="M67.46 92.73L57.43 92.73L57.43 102.73L67.46 102.73ZM59.84 111.66L74.26 111.66L74.26 109.55L62.45 109.55L62.45 104.87L59.84 104.87ZM59.98 100.67L59.98 94.81L64.91 94.81L64.91 100.67ZM70.81 106.37L73.41 106.37L73.41 99.29L76.37 99.29L76.37 97.11L73.41 97.11L73.41 90.9L70.81 90.9ZM96.78 99.38L77.45 99.38L77.45 101.45L96.78 101.45ZM79.72 104.87L91.79 104.87L91.79 106.34L79.74 106.34L79.74 111.88L94.93 111.88L94.93 109.84L82.3 109.84L82.3 108.22L94.34 108.22L94.34 102.9L79.72 102.9ZM79.91 98.02L94.48 98.02L94.48 95.96L82.51 95.96L82.51 93.52L94.3 93.52L94.3 91.44L79.91 91.44ZM115.88 90.9L113.26 90.9L113.26 112.09L115.88 112.09ZM98.33 106.25L99.69 108.34C107.11 104.81 109.55 99.45 109.55 93.15L99.41 93.15L99.41 95.21L106.91 95.21C106.44 100.03 103.88 103.61 98.33 106.25Z" fill="#0B0F17"/><path d="M67.32 130.18L66.17 130.18L66.17 133.8L63.46 133.8C63.24 132.14 61.87 131.02 60.12 131.01C58.17 131.02 56.73 132.33 56.73 134.22C56.73 136.1 58.17 137.44 60.12 137.44C61.84 137.44 63.19 136.35 63.44 134.75L66.17 134.75L66.17 139.77L67.32 139.77ZM57.83 134.22C57.83 132.93 58.81 132.03 60.12 132.02C61.4 132.03 62.37 132.93 62.37 134.22C62.37 135.52 61.4 136.43 60.12 136.45C58.81 136.43 57.83 135.52 57.83 134.22ZM58.96 142.91L67.69 142.91L67.69 141.94L60.12 141.94L60.12 138.79L58.96 138.79ZM72.99 131.17C71.07 131.18 69.72 132.95 69.73 135.72C69.72 138.49 71.07 140.25 72.99 140.24C74.81 140.25 76.11 138.65 76.24 136.1L79.14 136.1L79.14 143.22L80.29 143.22L80.29 130.16L79.14 130.16L79.14 135.14L76.22 135.14C76.05 132.71 74.76 131.18 72.99 131.17ZM70.82 135.72C70.83 133.6 71.71 132.21 72.99 132.2C74.27 132.21 75.16 133.6 75.16 135.72C75.16 137.83 74.27 139.22 72.99 139.22C71.71 139.22 70.83 137.83 70.82 135.72ZM84.59 141.02L83.17 141.02L82.37 145L83.45 145ZM94.5 134.16L94.5 132.46L97.43 132.46L97.43 131.51L90.34 131.51L90.34 132.46L93.37 132.46L93.37 134.16C93.35 136.38 91.74 138.86 89.87 139.77L90.57 140.68C92.03 139.93 93.33 138.25 93.93 136.34C94.52 138.1 95.76 139.64 97.22 140.36L97.88 139.45C95.99 138.55 94.48 136.25 94.5 134.16ZM99.02 143.19L100.17 143.19L100.17 136.42L102.35 136.42L102.35 135.44L100.17 135.44L100.17 130.16L99.02 130.16ZM114.97 140.61L111.74 140.61L111.74 138.13L113.77 138.13L113.77 137.18L105.69 137.18L105.69 135.07L113.47 135.07L113.47 131.13L104.52 131.13L104.52 132.08L112.34 132.08L112.34 134.12L104.54 134.12L104.54 138.13L106.41 138.13L106.41 140.61L103.05 140.61L103.05 141.58L114.97 141.58ZM107.53 140.61L107.53 138.13L110.61 138.13L110.61 140.61ZM126.31 131.01L117.51 131.01L117.51 131.97L125.17 131.97L125.17 132.16C125.17 133.37 125.17 134.73 124.77 136.61L116.01 136.61L116.01 137.56L121.35 137.56L121.35 143.22L122.5 143.22L122.5 137.56L127.88 137.56L127.88 136.61L125.94 136.61C126.31 134.74 126.31 133.39 126.31 132.16ZM140.9 140.55L135.51 140.55L135.51 137.39L134.35 137.39L134.35 140.55L128.98 140.55L128.98 141.52L140.9 141.52ZM129.56 136.92L130.05 137.84C132 137.44 134.1 136.14 134.93 134.32C135.77 136.12 137.87 137.39 139.86 137.78L140.33 136.87C138.08 136.51 135.52 134.72 135.51 132.64L135.51 132.32L139.88 132.32L139.88 131.35L129.96 131.35L129.96 132.32L134.33 132.32L134.33 132.64C134.33 134.72 131.77 136.54 129.56 136.92ZM144.08 141.02L142.66 141.02L141.85 145L142.94 145ZM153.51 142C156.74 142 158.57 139.99 158.57 136.68C158.57 133.38 156.74 131.39 153.65 131.39L150.22 131.39L150.22 142ZM151.54 140.83L151.54 132.57L153.56 132.57C156.03 132.57 157.28 134.12 157.28 136.68C157.28 139.25 156.03 140.83 153.43 140.83ZM160.5 142L164.35 142C166.86 142 167.91 140.78 167.91 139.19C167.91 137.5 166.75 136.59 165.76 136.54L165.76 136.43C166.68 136.18 167.5 135.57 167.49 134.21C167.5 132.65 166.45 131.39 164.22 131.39L160.5 131.39ZM161.82 140.83L161.82 137.18L164.41 137.18C165.78 137.18 166.65 138.1 166.64 139.17C166.65 140.1 166 140.83 164.34 140.83ZM161.82 136.04L161.82 132.57L164.22 132.57C165.61 132.57 166.23 133.3 166.23 134.22C166.23 135.33 165.33 136.05 164.18 136.04ZM171.28 141.02L169.86 141.02L169.06 145L170.14 145ZM177.89 142L178.95 139.01L183.21 139.01L184.28 142L185.67 142L181.79 131.39L180.39 131.39L176.51 142ZM179.35 137.85L181.04 133.11L181.13 133.11L182.81 137.85ZM188.42 131.39L187.1 131.39L187.1 142L188.42 142ZM191.5 142.09C192.02 142.08 192.44 141.66 192.44 141.14C192.44 140.62 192.02 140.2 191.5 140.2C190.99 140.2 190.55 140.62 190.56 141.14C190.55 141.66 190.99 142.08 191.5 142.09ZM209.6 137.74L197.68 137.74L197.68 138.69L203.04 138.69L203.04 143.19L204.17 143.19L204.17 138.69L209.6 138.69ZM199.22 135.96L208.05 135.96L208.05 130.9L199.22 130.9ZM200.35 135.06L200.35 131.83L206.91 131.83L206.91 135.06ZM221.45 130.16L220.3 130.16L220.3 133.75L217.59 133.75C217.37 132.13 216.02 131.06 214.25 131.06C212.3 131.06 210.86 132.33 210.86 134.19C210.86 136.05 212.3 137.35 214.25 137.34C216 137.35 217.33 136.27 217.58 134.69L220.3 134.69L220.3 139.11L221.45 139.11ZM211.96 134.19C211.96 132.95 212.91 132.03 214.25 132.04C215.53 132.03 216.5 132.95 216.5 134.19C216.5 135.47 215.53 136.37 214.25 136.36C212.91 136.37 211.96 135.47 211.96 134.19ZM212.24 142.19L212.67 143.11C214.64 142.76 216.45 141.72 217.24 140.22C218.01 141.74 219.82 142.76 221.79 143.11L222.27 142.19C219.94 141.82 217.83 140.43 217.84 138.59L217.84 138.07L216.66 138.07L216.66 138.59C216.65 140.37 214.51 141.82 212.24 142.19ZM229.55 130.4C226.65 130.4 224.94 131.2 224.94 132.64C224.94 134.12 226.65 134.92 229.55 134.92C232.45 134.92 234.15 134.12 234.15 132.64C234.15 131.2 232.45 130.4 229.55 130.4ZM223.62 136.74L235.49 136.74L235.49 135.8L223.62 135.8ZM225.06 138.75L232.84 138.75L232.84 139.93L225.09 139.93L225.09 143.04L234.36 143.04L234.36 142.13L226.23 142.13L226.23 140.78L233.96 140.78L233.96 137.87L225.06 137.87ZM226.14 132.64C226.13 131.78 227.39 131.27 229.55 131.26C231.72 131.27 232.98 131.78 232.98 132.64C232.98 133.55 231.72 134.05 229.55 134.05C227.39 134.05 226.13 133.55 226.14 132.64Z" fill="#767A7E"/><path d="M63.1 155.35L57.08 155.35L57.08 161.34L63.1 161.34ZM58.21 160.42L58.21 156.29L61.99 156.29L61.99 160.42ZM58.56 166.91L67.31 166.91L67.31 165.94L59.69 165.94L59.69 162.81L58.56 162.81ZM65.57 163.71L66.71 163.71L66.71 159.1L68.67 159.1L68.67 158.13L66.71 158.13L66.71 154.16L65.57 154.16ZM80.01 160.43L72.16 160.43L72.16 156.33L79.88 156.33L79.88 155.38L71.01 155.38L71.01 161.39L80.01 161.39ZM69.49 165.41L81.42 165.41L81.42 164.45L69.49 164.45ZM92.99 158.12L85.21 158.12L85.21 154.65L84.07 154.65L84.07 159.04L92.99 159.04ZM82.44 161.75L94.36 161.75L94.36 160.81L82.44 160.81ZM83.99 166.86L93.06 166.86L93.06 165.91L85.14 165.91L85.14 163.08L83.99 163.08ZM100.08 158.16L100.08 156.46L103.18 156.46L103.18 155.51L95.84 155.51L95.84 156.46L98.92 156.46L98.92 158.16C98.91 160.42 97.29 162.88 95.42 163.77L96.11 164.68C97.59 163.93 98.91 162.28 99.52 160.37C100.13 162.17 101.44 163.67 102.96 164.36L103.61 163.45C101.69 162.62 100.08 160.38 100.08 158.16ZM105 167.19L106.16 167.19L106.16 154.16L105 154.16ZM118.92 158.12L111.14 158.12L111.14 154.65L109.99 154.65L109.99 159.04L118.92 159.04ZM108.37 161.75L120.29 161.75L120.29 160.81L108.37 160.81ZM109.92 166.86L118.99 166.86L118.99 165.91L111.06 165.91L111.06 163.08L109.92 163.08ZM131.64 155.38L131.64 154.63L130.46 154.63L130.46 155.38C130.46 157.25 128.08 158.8 125.73 159.13L126.2 160.07C128.22 159.73 130.22 158.62 131.06 157.01C131.89 158.61 133.9 159.73 135.92 160.07L136.39 159.13C134.04 158.8 131.65 157.22 131.64 155.38ZM125.11 162.47L130.46 162.47L130.46 167.19L131.59 167.19L131.59 162.47L136.98 162.47L136.98 161.5L125.11 161.5ZM141.66 154.78C139.68 154.77 138.27 156.02 138.28 157.78C138.27 159.57 139.68 160.8 141.66 160.8C143.43 160.8 144.77 159.77 145 158.24L147.71 158.24L147.71 161.15L148.87 161.15L148.87 154.16L147.71 154.16L147.71 157.28L144.99 157.28C144.74 155.79 143.41 154.77 141.66 154.78ZM139.38 157.78C139.38 156.58 140.32 155.75 141.66 155.76C142.98 155.75 143.92 156.58 143.92 157.78C143.92 158.97 142.98 159.83 141.66 159.83C140.32 159.83 139.38 158.97 139.38 157.78ZM140.48 167.01L148.87 167.01L148.87 161.81L147.71 161.81L147.71 163.47L141.63 163.47L141.63 161.81L140.48 161.81ZM141.63 166.07L141.63 164.39L147.71 164.39L147.71 166.07ZM162.2 154.16L161.09 154.16L161.09 167.19L162.2 167.19ZM151.2 159.79C151.21 162.56 152.31 164.32 154 164.32C155.6 164.32 156.69 162.73 156.8 160.2L158.48 160.2L158.48 166.53L159.58 166.53L159.58 154.44L158.48 154.44L158.48 159.25L156.8 159.25C156.65 156.79 155.58 155.27 154 155.26C152.31 155.27 151.21 157.02 151.2 159.79ZM152.28 159.79C152.27 157.67 152.94 156.35 154 156.35C155.06 156.35 155.73 157.67 155.73 159.79C155.73 161.9 155.06 163.23 154 163.22C152.94 163.23 152.27 161.9 152.28 159.79ZM168.59 157.67L168.59 155.29L167.42 155.29L167.42 157.67C167.41 160.07 165.9 162.57 163.99 163.51L164.74 164.43C166.21 163.65 167.44 161.98 168.02 160.03C168.6 161.88 169.82 163.44 171.3 164.2L171.99 163.26C170.1 162.4 168.58 160.02 168.59 157.67ZM170.57 159.55L173.66 159.55L173.66 167.22L174.8 167.22L174.8 154.16L173.66 154.16L173.66 158.62L170.57 158.62ZM192.6 160.61L180.73 160.61L180.73 161.53L186.09 161.53L186.09 162.86C183.61 162.96 182.16 163.7 182.17 165C182.16 166.4 183.83 167.16 186.66 167.16C189.48 167.16 191.13 166.4 191.15 165C191.13 163.7 189.7 162.95 187.22 162.86L187.22 161.53L192.6 161.53ZM181.42 159.01L181.79 159.91C183.94 159.69 185.87 158.91 186.66 157.59C187.46 158.91 189.39 159.69 191.54 159.91L191.89 159.01C189.48 158.79 187.42 157.82 187.3 156.38L191.4 156.38L191.4 155.44L187.22 155.44L187.22 154.13L186.09 154.13L186.09 155.44L181.96 155.44L181.96 156.38L186.03 156.38C185.9 157.82 183.84 158.79 181.42 159.01ZM183.34 165C183.32 164.18 184.55 163.72 186.66 163.71C188.75 163.72 189.98 164.18 189.99 165C189.98 165.82 188.75 166.28 186.66 166.26C184.55 166.28 183.32 165.82 183.34 165ZM205.6 161.06L193.68 161.06L193.68 162L199.16 162L199.16 164.55L200.3 164.55L200.3 162L205.6 162ZM195.2 166.91L204.27 166.91L204.27 165.94L196.35 165.94L196.35 163.35L195.2 163.35ZM195.28 159.79L204.01 159.79L204.01 154.59L202.87 154.59L202.87 156.26L196.42 156.26L196.42 154.59L195.28 154.59ZM196.42 158.85L196.42 157.14L202.87 157.14L202.87 158.85ZM217.4 154.16L216.24 154.16L216.24 167.19L217.4 167.19ZM206.95 157.23L214.83 157.23L214.83 156.29L211.46 156.29L211.46 154.3L210.31 154.3L210.31 156.29L206.95 156.29ZM207.68 161.28C207.68 163.05 209.03 164.27 210.92 164.27C212.79 164.27 214.15 163.05 214.14 161.28C214.15 159.53 212.79 158.29 210.92 158.29C209.03 158.29 207.68 159.53 207.68 161.28ZM208.77 161.28C208.78 160.1 209.68 159.25 210.92 159.26C212.15 159.25 213.05 160.1 213.05 161.28C213.05 162.47 212.15 163.3 210.92 163.29C209.68 163.3 208.78 162.47 208.77 161.28ZM224.97 155.41L223.87 155.41L223.87 163.93L228.87 163.93L228.87 155.41L227.8 155.41L227.8 158.59L224.97 158.59ZM224.97 162.98L224.97 159.53L227.8 159.53L227.8 162.98ZM230.52 166.53L231.62 166.53L231.62 160.29L233.44 160.29L233.44 167.19L234.55 167.19L234.55 154.16L233.44 154.16L233.44 159.33L231.62 159.33L231.62 154.44L230.52 154.44ZM239.02 161.99L237.88 161.99L237.88 166.97L246.68 166.97L246.68 161.99L245.54 161.99L245.54 163.54L239.02 163.54ZM236.35 161.08L241.71 161.08L241.71 162.73L242.84 162.73L242.84 161.08L248.22 161.08L248.22 160.11L236.35 160.11ZM237.67 156.76C237.67 158.27 239.43 159.14 242.28 159.13C245.14 159.14 246.88 158.27 246.88 156.76C246.88 155.23 245.14 154.38 242.28 154.38C239.43 154.38 237.67 155.23 237.67 156.76ZM238.86 156.76C238.85 155.82 240.15 155.25 242.28 155.26C244.39 155.25 245.7 155.82 245.71 156.76C245.7 157.68 244.39 158.24 242.28 158.24C240.15 158.24 238.85 157.68 238.86 156.76ZM239.02 166.03L239.02 164.45L245.54 164.45L245.54 166.03ZM260.05 154.16L258.91 154.16L258.91 167.19L260.05 167.19ZM250.17 163.83L251.22 163.83C253.31 163.83 255.37 163.67 257.68 163.19L257.52 162.21C255.34 162.67 253.29 162.82 251.29 162.84L251.29 155.45L250.17 155.45ZM272.36 154.16L271.21 154.16L271.21 167.22L272.36 167.22L272.36 160.29L274.54 160.29L274.54 159.32L272.36 159.32ZM262.85 163.95L263.88 163.95C266.35 163.95 268.06 163.88 270.1 163.51L269.96 162.51C268.01 162.87 266.35 162.98 263.99 162.98L263.99 156.39L268.93 156.39L268.93 155.44L262.85 155.44ZM276.62 166.09C277.14 166.08 277.56 165.66 277.56 165.14C277.56 164.62 277.14 164.2 276.62 164.2C276.11 164.2 275.67 164.62 275.68 165.14C275.67 165.66 276.11 166.08 276.62 166.09Z" fill="#767A7E"/><line x1="320" y1="116" x2="358" y2="116" stroke="#C9CACC" stroke-width="2"/><line x1="320" y1="116" x2="358" y2="116" stroke="#42B4FF" stroke-width="2" stroke-dasharray="6 10"><animate attributeName="stroke-dashoffset" values="0;-32" dur="2.4s" repeatCount="indefinite"/></line><rect x="358" y="36" width="284" height="160" fill="#FFFFFF" stroke="#42B4FF" stroke-width="1.5"/><rect x="357" y="35" width="6" height="6" fill="#42B4FF" opacity="0.85"/><rect x="637" y="191" width="6" height="6" fill="#42B4FF" opacity="0.85"/><path d="M6 3h5v1h-5zM5 4h1v1h-1zM11 4h1v1h-1zM4 5h1v1h-1zM12 5h2v1h-2zM2 6h2v1h-2zM14 6h1v1h-1zM1 7h1v1h-1zM14 7h1v1h-1zM1 8h1v1h-1zM15 8h1v1h-1zM1 9h1v1h-1zM15 9h1v1h-1zM1 10h1v1h-1zM15 10h1v1h-1zM2 11h1v1h-1zM14 11h1v1h-1zM3 12h11v1h-11z" transform="translate(378 56)" fill="#1160D8"/><path d="M558.29 68L560.66 60.19L561.94 60.19L564.31 68L563.3 68L561.3 61.05L559.3 68L558.29 68ZM559.49 65.78L559.82 64.85L562.79 64.85L563.12 65.78L559.49 65.78ZM569.62 68.18Q568.8 68.18 568.16 67.83Q567.52 67.49 567.14 66.89Q566.75 66.3 566.68 65.5L567.67 65.44Q567.75 66.02 568.01 66.43Q568.27 66.83 568.68 67.04Q569.09 67.25 569.64 67.25Q570.19 67.25 570.57 67.11Q570.94 66.98 571.13 66.71Q571.33 66.44 571.33 66.05Q571.33 65.68 571.16 65.41Q570.99 65.14 570.52 64.9Q570.05 64.67 569.14 64.41Q568.32 64.18 567.82 63.9Q567.32 63.62 567.1 63.22Q566.87 62.82 566.87 62.24Q566.87 61.58 567.18 61.08Q567.5 60.58 568.08 60.29Q568.66 60.01 569.47 60.01Q570.27 60.01 570.84 60.34Q571.41 60.66 571.75 61.22Q572.09 61.79 572.17 62.5L571.18 62.57Q571.12 62.09 570.91 61.72Q570.7 61.36 570.34 61.15Q569.97 60.94 569.45 60.94Q568.72 60.94 568.29 61.28Q567.86 61.63 567.86 62.19Q567.86 62.56 568.02 62.79Q568.18 63.03 568.59 63.21Q568.99 63.39 569.73 63.6Q570.69 63.86 571.25 64.19Q571.82 64.52 572.07 64.97Q572.32 65.43 572.32 66.08Q572.32 66.69 571.98 67.17Q571.63 67.65 571.03 67.91Q570.42 68.18 569.62 68.18ZM575.39 68L575.39 60.19L577.59 60.19Q578.88 60.19 579.53 60.76Q580.19 61.33 580.19 62.32Q580.19 62.81 579.96 63.19Q579.72 63.58 579.31 63.8Q578.89 64.02 578.34 64.02L578.34 63.95Q579.02 63.95 579.51 64.18Q580 64.41 580.26 64.83Q580.52 65.25 580.52 65.82Q580.52 66.83 579.81 67.42Q579.11 68 577.87 68L575.39 68ZM576.34 67.08L577.88 67.08Q578.72 67.08 579.12 66.75Q579.53 66.42 579.53 65.82Q579.53 65.19 579.11 64.84Q578.69 64.49 577.88 64.49L576.34 64.49L576.34 67.08ZM576.34 63.57L577.63 63.57Q578.45 63.57 578.82 63.25Q579.2 62.93 579.2 62.35Q579.2 61.75 578.82 61.43Q578.45 61.11 577.63 61.11L576.34 61.11L576.34 63.57ZM585.88 68.18Q585.05 68.18 584.41 67.72Q583.77 67.26 583.39 66.36Q583.02 65.45 583.02 64.11Q583.02 62.84 583.36 61.93Q583.71 61.02 584.36 60.51Q585.01 60.01 585.92 60.01Q586.64 60.01 587.19 60.33Q587.75 60.65 588.12 61.22Q588.5 61.79 588.66 62.52L587.67 62.59Q587.48 61.86 587.05 61.4Q586.62 60.94 585.92 60.94Q585.32 60.94 584.89 61.31Q584.46 61.68 584.23 62.38Q584.01 63.09 584.01 64.11Q584.01 65.11 584.24 65.81Q584.47 66.52 584.9 66.88Q585.34 67.25 585.97 67.25Q586.53 67.25 586.93 66.96Q587.33 66.67 587.56 66.15Q587.79 65.62 587.81 64.95L585.94 64.95L585.94 64.05L588.69 64.05L588.69 68L587.81 68L587.77 66.15L588.03 66.24Q587.88 66.8 587.61 67.24Q587.34 67.68 586.92 67.93Q586.49 68.18 585.88 68.18ZM602.3 68.18Q601.07 68.18 600.36 67.4Q599.66 66.61 599.66 65.27L599.66 60.19L600.61 60.19L600.61 65.27Q600.61 66.24 601.04 66.75Q601.48 67.25 602.3 67.25Q603.13 67.25 603.56 66.75Q603.99 66.24 603.99 65.27L603.99 60.19L604.94 60.19L604.94 65.27Q604.94 66.61 604.24 67.4Q603.53 68.18 602.3 68.18ZM610.5 68.18Q609.58 68.18 608.93 67.7Q608.29 67.23 607.95 66.32Q607.62 65.4 607.62 64.11Q607.62 62.79 607.95 61.87Q608.29 60.96 608.93 60.49Q609.58 60.01 610.5 60.01Q611.42 60.01 612.07 60.49Q612.71 60.96 613.05 61.87Q613.38 62.79 613.38 64.11Q613.38 65.4 613.05 66.32Q612.71 67.23 612.07 67.7Q611.42 68.18 610.5 68.18ZM610.5 67.25Q611.11 67.25 611.53 66.89Q611.95 66.54 612.17 65.83Q612.39 65.13 612.39 64.11Q612.39 63.08 612.17 62.37Q611.95 61.66 611.53 61.3Q611.11 60.94 610.5 60.94Q609.9 60.94 609.47 61.3Q609.05 61.66 608.83 62.37Q608.61 63.08 608.61 64.11Q608.61 65.13 608.83 65.83Q609.05 66.54 609.47 66.89Q609.9 67.25 610.5 67.25ZM618.82 68.18Q618 68.18 617.36 67.83Q616.72 67.49 616.34 66.89Q615.95 66.3 615.88 65.5L616.87 65.44Q616.95 66.02 617.21 66.43Q617.47 66.83 617.88 67.04Q618.29 67.25 618.84 67.25Q619.39 67.25 619.77 67.11Q620.14 66.98 620.33 66.71Q620.53 66.44 620.53 66.05Q620.53 65.68 620.36 65.41Q620.19 65.14 619.72 64.9Q619.25 64.67 618.34 64.41Q617.52 64.18 617.02 63.9Q616.52 63.62 616.3 63.22Q616.07 62.82 616.07 62.24Q616.07 61.58 616.38 61.08Q616.7 60.58 617.28 60.29Q617.86 60.01 618.67 60.01Q619.47 60.01 620.04 60.34Q620.61 60.66 620.95 61.22Q621.29 61.79 621.37 62.5L620.38 62.57Q620.32 62.09 620.11 61.72Q619.9 61.36 619.54 61.15Q619.17 60.94 618.65 60.94Q617.92 60.94 617.49 61.28Q617.06 61.63 617.06 62.19Q617.06 62.56 617.22 62.79Q617.38 63.03 617.79 63.21Q618.19 63.39 618.93 63.6Q619.89 63.86 620.45 64.19Q621.02 64.52 621.27 64.97Q621.52 65.43 621.52 66.08Q621.52 66.69 621.18 67.17Q620.83 67.65 620.23 67.91Q619.62 68.18 618.82 68.18Z" fill="#767A7E"/><path d="M388.34 91.11C383.52 91.12 380.7 92.41 380.7 94.74C380.7 96.89 383.02 98.14 387.02 98.36L387.02 99.71L378.7 99.71L378.7 101.8L398.02 101.8L398.02 99.71L389.6 99.71L389.6 98.36C393.64 98.14 395.96 96.9 395.98 94.74C395.96 92.41 393.16 91.12 388.34 91.11ZM380.98 105.13L393.05 105.13L393.05 106.48L381 106.48L381 111.9L396.19 111.9L396.19 109.91L383.55 109.91L383.55 108.34L395.6 108.34L395.6 103.16L380.98 103.16ZM383.44 94.74C383.43 93.65 385.11 93.07 388.34 93.05C391.61 93.07 393.28 93.65 393.28 94.74C393.28 95.91 391.61 96.45 388.34 96.48C385.11 96.45 383.43 95.91 383.44 94.74ZM417.09 90.9L414.52 90.9L414.52 112.11L417.09 112.11ZM400.59 94.86L407.93 94.86L407.93 98.63L400.62 98.63L400.62 107.09L402.47 107.09C406.28 107.11 409.44 106.96 413.04 106.34L412.8 104.21C409.5 104.76 406.63 104.94 403.29 104.96L403.29 100.7L410.58 100.7L410.58 92.75L400.59 92.75ZM437.88 90.9L435.26 90.9L435.26 112.09L437.88 112.09ZM420.33 106.25L421.69 108.34C429.11 104.81 431.55 99.45 431.55 93.15L421.41 93.15L421.41 95.21L428.91 95.21C428.44 100.03 425.88 103.61 420.33 106.25Z" fill="#0B0F17"/><path d="M385.1 131.35L379.08 131.35L379.08 137.34L385.1 137.34ZM380.21 136.42L380.21 132.29L383.99 132.29L383.99 136.42ZM380.56 142.91L389.31 142.91L389.31 141.94L381.69 141.94L381.69 138.81L380.56 138.81ZM387.57 139.71L388.71 139.71L388.71 135.1L390.67 135.1L390.67 134.13L388.71 134.13L388.71 130.16L387.57 130.16ZM403.37 136.74L391.49 136.74L391.49 137.68L403.37 137.68ZM393 135.31L402.01 135.31L402.01 134.35L394.14 134.35L394.14 131.67L401.89 131.67L401.89 130.74L393 130.74ZM393.03 142.89L402.11 142.89L402.11 141.93L394.17 141.93L394.17 139.08L393.03 139.08ZM419.02 130.18L417.86 130.18L417.86 133.84L415 133.84L415 134.81L417.86 134.81L417.86 139L419.02 139ZM408.44 137.22L408.95 138.15C412.69 136.95 414.94 134.54 414.94 131.2L409.08 131.2L409.08 132.14L413.72 132.14C413.48 134.46 411.55 136.27 408.44 137.22ZM409.8 142.23L410.27 143.14C412.21 142.76 414 141.74 414.79 140.21C415.56 141.73 417.33 142.75 419.25 143.11L419.73 142.19C417.44 141.78 415.36 140.35 415.35 138.46L415.35 137.85L414.23 137.85L414.23 138.46C414.21 140.37 412.11 141.83 409.8 142.23ZM427.12 130.4C424.21 130.4 422.5 131.2 422.5 132.64C422.5 134.12 424.21 134.92 427.12 134.92C430.01 134.92 431.71 134.12 431.72 132.64C431.71 131.2 430.01 130.4 427.12 130.4ZM421.18 136.74L433.05 136.74L433.05 135.8L421.18 135.8ZM422.62 138.75L430.4 138.75L430.4 139.93L422.65 139.93L422.65 143.04L431.92 143.04L431.92 142.13L423.79 142.13L423.79 140.78L431.53 140.78L431.53 137.87L422.62 137.87ZM423.7 132.64C423.69 131.78 424.96 131.27 427.12 131.26C429.28 131.27 430.54 131.78 430.54 132.64C430.54 133.55 429.28 134.05 427.12 134.05C424.96 134.05 423.69 133.55 423.7 132.64ZM442.5 133.67L442.5 131.29L441.33 131.29L441.33 133.67C441.32 136.07 439.81 138.57 437.9 139.51L438.64 140.43C440.12 139.65 441.35 137.98 441.93 136.03C442.5 137.88 443.73 139.44 445.21 140.2L445.9 139.26C444.01 138.4 442.49 136.02 442.5 133.67ZM444.47 135.55L447.57 135.55L447.57 143.22L448.71 143.22L448.71 130.16L447.57 130.16L447.57 134.62L444.47 134.62ZM461.67 130.16L460.53 130.16L460.53 135.01L457.41 135.01L457.41 131.19L456.28 131.19L456.28 134.59L452.56 134.59L452.56 131.19L451.4 131.19L451.4 139.92L457.41 139.92L457.41 135.96L460.53 135.96L460.53 143.22L461.67 143.22ZM452.56 138.97L452.56 135.51L456.28 135.51L456.28 138.97ZM475 130.16L473.89 130.16L473.89 143.19L475 143.19ZM464 135.79C464.01 138.56 465.11 140.32 466.8 140.32C468.4 140.32 469.49 138.73 469.6 136.2L471.28 136.2L471.28 142.53L472.38 142.53L472.38 130.44L471.28 130.44L471.28 135.25L469.6 135.25C469.45 132.79 468.38 131.27 466.8 131.26C465.11 131.27 464.01 133.02 464 135.79ZM465.08 135.79C465.07 133.67 465.74 132.35 466.8 132.35C467.86 132.35 468.53 133.67 468.53 135.79C468.53 137.9 467.86 139.23 466.8 139.22C465.74 139.23 465.07 137.9 465.08 135.79ZM486.5 130.33C483.59 130.33 481.89 131.13 481.89 132.58C481.89 133.94 483.37 134.73 485.92 134.84L485.92 135.83L480.57 135.83L480.57 136.77L492.43 136.77L492.43 135.83L487.04 135.83L487.04 134.84C489.61 134.74 491.09 133.95 491.1 132.58C491.09 131.13 489.39 130.33 486.5 130.33ZM482 138.76L489.78 138.76L489.78 139.93L482.03 139.93L482.03 143.04L491.31 143.04L491.31 142.13L483.18 142.13L483.18 140.78L490.91 140.78L490.91 137.87L482 137.87ZM483.09 132.58C483.07 131.72 484.34 131.22 486.5 131.2C488.66 131.22 489.92 131.72 489.93 132.58C489.92 133.47 488.66 133.96 486.5 133.97C484.34 133.96 483.07 133.47 483.09 132.58ZM504.31 130.16L503.17 130.16L503.17 133.14L500.56 133.14L500.56 134.1L503.17 134.1L503.17 136.7L500.46 136.7L500.46 137.66L503.17 137.66L503.17 143.22L504.31 143.22ZM493.99 132.3L498.59 132.3L498.59 135.04L494.03 135.04L494.03 140.17L495 140.17C497.08 140.17 498.75 140.1 500.83 139.77L500.72 138.81C498.75 139.11 497.13 139.19 495.17 139.19L495.17 135.98L499.71 135.98L499.71 131.35L493.99 131.35ZM521 130.16L519.87 130.16L519.87 136.92L521 136.92ZM510.35 135.88L510.95 136.79C512.49 136.23 513.72 135.03 514.3 133.52C514.89 134.92 516.1 136.02 517.63 136.54L518.2 135.64C516.27 135.01 514.86 133.38 514.88 131.54L514.88 130.54L513.7 130.54L513.7 131.54C513.7 133.45 512.31 135.2 510.35 135.88ZM512.55 138.5L519.87 138.5L519.87 139.8L512.58 139.8L512.58 143.04L521.48 143.04L521.48 142.1L513.7 142.1L513.7 140.7L521.01 140.7L521.01 137.58L512.55 137.58ZM534.36 130.16L533.26 130.16L533.26 143.19L534.36 143.19ZM523.06 139.71L523.8 140.58C525.1 139.77 526.04 138.24 526.51 136.44C526.97 138.1 527.88 139.5 529.16 140.27L529.86 139.42C528.07 138.38 527.05 136.13 527.05 133.88L527.05 132.65L529.44 132.65L529.44 131.7L523.43 131.7L523.43 132.65L525.93 132.65L525.93 133.88C525.94 136.25 524.88 138.63 523.06 139.71ZM528.44 135.8L530.64 135.8L530.64 142.51L531.72 142.51L531.72 130.49L530.64 130.49L530.64 134.87L528.44 134.87ZM544.32 133.67L544.32 131.29L543.19 131.29L543.19 133.67C543.18 136.05 541.67 138.54 539.76 139.48L540.5 140.4C541.96 139.62 543.19 137.97 543.77 136.05C544.35 137.86 545.55 139.41 546.98 140.15L547.69 139.23C545.83 138.32 544.32 135.96 544.32 133.67ZM548.89 143.19L550.03 143.19L550.03 136.45L552.21 136.45L552.21 135.45L550.03 135.45L550.03 130.16L548.89 130.16ZM564.78 136.61L561.84 136.61L561.84 134.77C562.86 134.36 563.44 133.7 563.45 132.83C563.44 131.3 561.68 130.42 558.85 130.41C555.99 130.42 554.24 131.3 554.24 132.83C554.24 133.71 554.82 134.37 555.86 134.77L555.86 136.61L552.92 136.61L552.92 137.56L564.78 137.56ZM554.35 140.86C554.35 142.34 556.02 143.16 558.85 143.16C561.64 143.16 563.32 142.34 563.33 140.86C563.32 139.37 561.64 138.55 558.85 138.56C556.02 138.55 554.35 139.37 554.35 140.86ZM555.42 132.83C555.41 131.89 556.72 131.32 558.85 131.32C560.96 131.32 562.27 131.89 562.28 132.83C562.27 133.78 560.96 134.33 558.85 134.34C556.72 134.33 555.41 133.78 555.42 132.83ZM555.52 140.86C555.51 139.97 556.76 139.45 558.85 139.44C560.92 139.45 562.17 139.97 562.17 140.86C562.17 141.74 560.92 142.27 558.85 142.26C556.76 142.27 555.51 141.74 555.52 140.86ZM557 136.61L557 135.09C557.55 135.18 558.17 135.23 558.85 135.23C559.53 135.23 560.15 135.18 560.7 135.08L560.7 136.61ZM570.29 134.16L570.29 132.46L573.22 132.46L573.22 131.51L566.13 131.51L566.13 132.46L569.16 132.46L569.16 134.16C569.15 136.38 567.54 138.86 565.66 139.77L566.36 140.68C567.82 139.93 569.13 138.25 569.73 136.34C570.31 138.1 571.55 139.64 573.01 140.36L573.67 139.45C571.78 138.55 570.28 136.25 570.29 134.16ZM574.82 143.19L575.96 143.19L575.96 136.42L578.14 136.42L578.14 135.44L575.96 135.44L575.96 130.16L574.82 130.16ZM588.92 130.16L587.78 130.16L587.78 143.19L588.92 143.19L588.92 136.43L591.03 136.43L591.03 135.47L588.92 135.47ZM578.93 139.8L579.58 140.71C583.82 138.62 585.55 135.25 585.55 131.57L579.53 131.57L579.53 132.54L584.39 132.54C584.13 135.62 582.29 138.13 578.93 139.8ZM599.54 131.07L599.54 130.33L598.4 130.33L598.4 131.07C598.4 132.07 597.51 133.39 595.92 133.96L596.5 134.82C597.71 134.36 598.55 133.48 598.98 132.53C599.38 133.53 600.22 134.49 601.51 134.95C602.77 134.5 603.61 133.58 604.02 132.59C604.44 133.56 605.29 134.39 606.52 134.82L607.07 133.96C605.45 133.45 604.6 132.21 604.6 131.07L604.6 130.33L603.45 130.33L603.45 131.07C603.45 132.02 602.77 133.17 601.51 133.83C600.23 133.15 599.54 131.95 599.54 131.07ZM595.57 136.64L607.44 136.64L607.44 135.7L595.57 135.7ZM597.01 138.62L604.79 138.62L604.79 139.89L597.04 139.89L597.04 143.04L606.31 143.04L606.31 142.13L598.18 142.13L598.18 140.74L605.92 140.74L605.92 137.74L597.01 137.74Z" fill="#767A7E"/><path d="M385.06 155.38L385.06 154.63L383.87 154.63L383.87 155.38C383.87 157.25 381.49 158.8 379.14 159.13L379.61 160.07C381.64 159.73 383.64 158.62 384.47 157.01C385.31 158.61 387.32 159.73 389.34 160.07L389.81 159.13C387.46 158.8 385.07 157.22 385.06 155.38ZM378.53 162.47L383.87 162.47L383.87 167.19L385 167.19L385 162.47L390.39 162.47L390.39 161.5L378.53 161.5ZM399.67 162.91L399.67 162.19L398.55 162.19L398.55 162.91C398.54 164.15 397.55 165.55 395.9 166.16L396.49 167.01C397.73 166.54 398.63 165.63 399.09 164.59C399.48 165.68 400.29 166.63 401.55 167.11C402.76 166.61 403.55 165.6 403.96 164.55C404.41 165.64 405.32 166.55 406.62 167.01L407.19 166.16C405.52 165.58 404.54 164.25 404.54 162.91L404.54 162.19L403.42 162.19L403.42 162.91C403.42 163.91 402.76 165.22 401.52 165.99C400.28 165.28 399.66 164.06 399.67 162.91ZM395.56 157.99C395.56 159.77 397 161 398.98 161C400.95 161 402.38 159.77 402.39 157.99C402.38 156.17 400.95 154.93 398.98 154.94C397 154.93 395.56 156.17 395.56 157.99ZM396.69 157.99C396.68 156.77 397.64 155.91 398.98 155.92C400.3 155.91 401.26 156.77 401.26 157.99C401.26 159.2 400.3 160.05 398.98 160.05C397.64 160.05 396.68 159.2 396.69 157.99ZM404.87 161.62L406.01 161.62L406.01 154.18L404.87 154.18ZM419.37 154.16L418.27 154.16L418.27 167.19L419.37 167.19ZM408.23 163.54L408.91 164.37C410.72 163.3 411.98 161.96 412.77 160.45L415.53 160.45L415.53 166.53L416.63 166.53L416.63 154.52L415.53 154.52L415.53 159.51L413.19 159.51C413.64 158.35 413.84 157.12 413.84 155.83L408.79 155.83L408.79 156.79L412.7 156.79C412.48 159.51 411.06 161.86 408.23 163.54ZM435.03 154.16L433.88 154.16L433.88 167.19L435.03 167.19L435.03 160.49L437.21 160.49L437.21 159.54L435.03 159.54ZM424.88 157.21L432.62 157.21L432.62 156.26L429.37 156.26L429.37 154.33L428.23 154.33L428.23 156.26L424.88 156.26ZM425.62 161.28C425.61 163.05 426.96 164.27 428.82 164.27C430.65 164.27 431.99 163.05 432.01 161.28C431.99 159.53 430.65 158.29 428.82 158.29C426.96 158.29 425.61 159.53 425.62 161.28ZM426.72 161.28C426.71 160.1 427.6 159.25 428.82 159.26C430.02 159.25 430.9 160.1 430.91 161.28C430.9 162.47 430.02 163.3 428.82 163.29C427.6 163.3 426.71 162.47 426.72 161.28ZM448.44 158.12L440.67 158.12L440.67 154.65L439.52 154.65L439.52 159.04L448.44 159.04ZM437.9 161.75L449.82 161.75L449.82 160.81L437.9 160.81ZM439.45 166.86L448.52 166.86L448.52 165.91L440.59 165.91L440.59 163.08L439.45 163.08ZM458.33 154.65C456.36 154.65 454.94 155.84 454.95 157.53C454.94 159.23 456.36 160.4 458.33 160.4C460.28 160.4 461.69 159.23 461.7 157.53C461.69 155.84 460.28 154.65 458.33 154.65ZM456.08 157.53C456.06 156.41 457.02 155.61 458.33 155.61C459.62 155.61 460.59 156.41 460.59 157.53C460.59 158.68 459.62 159.47 458.33 159.47C457.02 159.47 456.06 158.68 456.08 157.53ZM456.93 162.41L464.25 162.41L464.25 163.76L456.96 163.76L456.96 167.01L465.86 167.01L465.86 166.09L458.08 166.09L458.08 164.62L465.39 164.62L465.39 161.49L456.93 161.49ZM464.25 160.86L465.39 160.86L465.39 154.16L464.25 154.16ZM468.98 166.09C469.5 166.08 469.93 165.66 469.92 165.14C469.93 164.62 469.5 164.2 468.98 164.2C468.47 164.2 468.03 164.62 468.04 165.14C468.03 165.66 468.47 166.08 468.98 166.09Z" fill="#767A7E"/><line x1="642" y1="116" x2="680" y2="116" stroke="#C9CACC" stroke-width="2"/><line x1="642" y1="116" x2="680" y2="116" stroke="#42B4FF" stroke-width="2" stroke-dasharray="6 10"><animate attributeName="stroke-dashoffset" values="0;-32" dur="2.4s" repeatCount="indefinite"/></line><rect x="680" y="36" width="284" height="160" fill="#FFFFFF" stroke="#42B4FF" stroke-width="1.5"/><rect x="679" y="35" width="6" height="6" fill="#42B4FF" opacity="0.85"/><rect x="959" y="191" width="6" height="6" fill="#42B4FF" opacity="0.85"/><path d="M3 4h4v1h-4zM2 5h1v1h-1zM7 5h1v1h-1zM1 6h1v1h-1zM8 6h8v1h-8zM1 7h1v1h-1zM8 7h1v1h-1zM15 7h1v1h-1zM1 8h1v1h-1zM8 8h8v1h-8zM2 9h1v1h-1zM7 9h1v1h-1zM11 9h1v1h-1zM13 9h1v1h-1zM3 10h4v1h-4zM11 10h1v1h-1zM13 10h1v1h-1z" transform="translate(700 56)" fill="#1160D8"/><path d="M880.29 68L882.66 60.19L883.94 60.19L886.31 68L885.3 68L883.3 61.05L881.3 68L880.29 68ZM881.49 65.78L881.82 64.85L884.79 64.85L885.12 65.78L881.49 65.78ZM891.62 68.18Q890.8 68.18 890.16 67.83Q889.52 67.49 889.14 66.89Q888.75 66.3 888.68 65.5L889.67 65.44Q889.75 66.02 890.01 66.43Q890.27 66.83 890.68 67.04Q891.09 67.25 891.64 67.25Q892.19 67.25 892.57 67.11Q892.94 66.98 893.13 66.71Q893.33 66.44 893.33 66.05Q893.33 65.68 893.16 65.41Q892.99 65.14 892.52 64.9Q892.05 64.67 891.14 64.41Q890.32 64.18 889.82 63.9Q889.32 63.62 889.1 63.22Q888.87 62.82 888.87 62.24Q888.87 61.58 889.18 61.08Q889.5 60.58 890.08 60.29Q890.66 60.01 891.47 60.01Q892.27 60.01 892.84 60.34Q893.41 60.66 893.75 61.22Q894.09 61.79 894.17 62.5L893.18 62.57Q893.12 62.09 892.91 61.72Q892.7 61.36 892.34 61.15Q891.97 60.94 891.45 60.94Q890.72 60.94 890.29 61.28Q889.86 61.63 889.86 62.19Q889.86 62.56 890.02 62.79Q890.18 63.03 890.59 63.21Q890.99 63.39 891.73 63.6Q892.69 63.86 893.25 64.19Q893.82 64.52 894.07 64.97Q894.32 65.43 894.32 66.08Q894.32 66.69 893.98 67.17Q893.63 67.65 893.03 67.91Q892.42 68.18 891.62 68.18ZM897.39 68L897.39 60.19L899.59 60.19Q900.88 60.19 901.53 60.76Q902.19 61.33 902.19 62.32Q902.19 62.81 901.96 63.19Q901.72 63.58 901.31 63.8Q900.89 64.02 900.34 64.02L900.34 63.95Q901.02 63.95 901.51 64.18Q902 64.41 902.26 64.83Q902.52 65.25 902.52 65.82Q902.52 66.83 901.81 67.42Q901.11 68 899.87 68L897.39 68ZM898.34 67.08L899.88 67.08Q900.72 67.08 901.12 66.75Q901.53 66.42 901.53 65.82Q901.53 65.19 901.11 64.84Q900.69 64.49 899.88 64.49L898.34 64.49L898.34 67.08ZM898.34 63.57L899.63 63.57Q900.45 63.57 900.82 63.25Q901.2 62.93 901.2 62.35Q901.2 61.75 900.82 61.43Q900.45 61.11 899.63 61.11L898.34 61.11L898.34 63.57ZM907.88 68.18Q907.05 68.18 906.41 67.72Q905.77 67.26 905.39 66.36Q905.02 65.45 905.02 64.11Q905.02 62.84 905.36 61.93Q905.71 61.02 906.36 60.51Q907.01 60.01 907.92 60.01Q908.64 60.01 909.19 60.33Q909.75 60.65 910.12 61.22Q910.5 61.79 910.66 62.52L909.67 62.59Q909.48 61.86 909.05 61.4Q908.62 60.94 907.92 60.94Q907.32 60.94 906.89 61.31Q906.46 61.68 906.23 62.38Q906.01 63.09 906.01 64.11Q906.01 65.11 906.24 65.81Q906.47 66.52 906.9 66.88Q907.34 67.25 907.97 67.25Q908.53 67.25 908.93 66.96Q909.33 66.67 909.56 66.15Q909.79 65.62 909.81 64.95L907.94 64.95L907.94 64.05L910.69 64.05L910.69 68L909.81 68L909.77 66.15L910.03 66.24Q909.88 66.8 909.61 67.24Q909.34 67.68 908.92 67.93Q908.49 68.18 907.88 68.18ZM924.3 68.18Q923.07 68.18 922.36 67.4Q921.66 66.61 921.66 65.27L921.66 60.19L922.61 60.19L922.61 65.27Q922.61 66.24 923.04 66.75Q923.48 67.25 924.3 67.25Q925.13 67.25 925.56 66.75Q925.99 66.24 925.99 65.27L925.99 60.19L926.94 60.19L926.94 65.27Q926.94 66.61 926.24 67.4Q925.53 68.18 924.3 68.18ZM932.5 68.18Q931.58 68.18 930.93 67.7Q930.29 67.23 929.95 66.32Q929.62 65.4 929.62 64.11Q929.62 62.79 929.95 61.87Q930.29 60.96 930.93 60.49Q931.58 60.01 932.5 60.01Q933.42 60.01 934.07 60.49Q934.71 60.96 935.05 61.87Q935.38 62.79 935.38 64.11Q935.38 65.4 935.05 66.32Q934.71 67.23 934.07 67.7Q933.42 68.18 932.5 68.18ZM932.5 67.25Q933.11 67.25 933.53 66.89Q933.95 66.54 934.17 65.83Q934.39 65.13 934.39 64.11Q934.39 63.08 934.17 62.37Q933.95 61.66 933.53 61.3Q933.11 60.94 932.5 60.94Q931.9 60.94 931.47 61.3Q931.05 61.66 930.83 62.37Q930.61 63.08 930.61 64.11Q930.61 65.13 930.83 65.83Q931.05 66.54 931.47 66.89Q931.9 67.25 932.5 67.25ZM940.82 68.18Q940 68.18 939.36 67.83Q938.72 67.49 938.34 66.89Q937.95 66.3 937.88 65.5L938.87 65.44Q938.95 66.02 939.21 66.43Q939.47 66.83 939.88 67.04Q940.29 67.25 940.84 67.25Q941.39 67.25 941.77 67.11Q942.14 66.98 942.33 66.71Q942.53 66.44 942.53 66.05Q942.53 65.68 942.36 65.41Q942.19 65.14 941.72 64.9Q941.25 64.67 940.34 64.41Q939.52 64.18 939.02 63.9Q938.52 63.62 938.3 63.22Q938.07 62.82 938.07 62.24Q938.07 61.58 938.38 61.08Q938.7 60.58 939.28 60.29Q939.86 60.01 940.67 60.01Q941.47 60.01 942.04 60.34Q942.61 60.66 942.95 61.22Q943.29 61.79 943.37 62.5L942.38 62.57Q942.32 62.09 942.11 61.72Q941.9 61.36 941.54 61.15Q941.17 60.94 940.65 60.94Q939.92 60.94 939.49 61.28Q939.06 61.63 939.06 62.19Q939.06 62.56 939.22 62.79Q939.38 63.03 939.79 63.21Q940.19 63.39 940.93 63.6Q941.89 63.86 942.45 64.19Q943.02 64.52 943.27 64.97Q943.52 65.43 943.52 66.08Q943.52 66.69 943.18 67.17Q942.83 67.65 942.23 67.91Q941.62 68.18 940.82 68.18Z" fill="#767A7E"/><path d="M708.7 96.92L708.7 95.14L713.34 95.14L713.34 92.98L701.38 92.98L701.38 95.14L706.05 95.14L706.05 96.92C706.04 100.52 703.95 104.47 700.61 106.02L702.11 108.05C704.58 106.88 706.45 104.45 707.42 101.54C708.39 104.23 710.22 106.45 712.73 107.54L714.16 105.48C710.73 104.05 708.7 100.39 708.7 96.92ZM715.7 112.09L718.33 112.09L718.33 90.9L715.7 90.9ZM732.93 92.98L722.95 92.98L722.95 95.09L730.33 95.09C730.23 96.2 730.06 97.25 729.77 98.23L721.87 98.73L722.2 100.95L728.93 100.34C727.63 102.89 725.37 105.01 721.73 106.79L723.11 108.8C730.98 104.95 732.91 99.37 732.93 92.98ZM736.52 112.09L739.14 112.09L739.14 90.9L736.52 90.9ZM759.88 90.9L757.26 90.9L757.26 112.09L759.88 112.09ZM742.33 106.25L743.69 108.34C751.11 104.81 753.55 99.45 753.55 93.15L743.41 93.15L743.41 95.21L750.91 95.21C750.44 100.03 747.88 103.61 742.33 106.25Z" fill="#0B0F17"/><path d="M711.07 137.21L703.24 137.21L703.24 135.12L710.65 135.12L710.65 134.19L703.24 134.19L703.24 132.26L710.93 132.26L710.93 131.29L702.07 131.29L702.07 138.15L711.07 138.15ZM700.53 141.49L712.45 141.49L712.45 140.54L700.53 140.54ZM718.81 131.58L713.9 131.58L713.9 132.55L717.7 132.55L717.7 135.19L713.93 135.19L713.93 140.07L714.78 140.07C716.42 140.07 717.89 140.01 719.75 139.69L719.64 138.75C717.96 139.03 716.55 139.09 715.04 139.1L715.04 136.14L718.81 136.14ZM720.55 142.51L721.61 142.51L721.61 136.27L723.53 136.27L723.53 143.19L724.62 143.19L724.62 130.16L723.53 130.16L723.53 135.32L721.61 135.32L721.61 130.46L720.55 130.46ZM734.09 131.23L727.04 131.23L727.04 132.19L728.34 132.19L728.34 136.27C727.76 136.27 727.19 136.27 726.67 136.27L726.82 137.25C729.08 137.25 732.15 137.22 734.82 136.81L734.73 135.95C734.1 136.02 733.44 136.07 732.77 136.12L732.77 132.19L734.09 132.19ZM728.45 139.66L736.06 139.66L736.06 143.19L737.21 143.19L737.21 138.7L728.45 138.7ZM729.46 136.25L729.46 132.19L731.66 132.19L731.66 136.18C730.92 136.21 730.18 136.24 729.46 136.25ZM736.06 138.07L737.21 138.07L737.21 130.16L736.06 130.16ZM750.16 130.16L749 130.16L749 143.22L750.16 143.22ZM739.9 135.72C739.91 138.49 741.29 140.25 743.23 140.24C745.16 140.25 746.56 138.49 746.55 135.72C746.56 132.95 745.16 131.18 743.23 131.17C741.29 131.18 739.91 132.95 739.9 135.72ZM741.02 135.72C741.02 133.6 741.92 132.21 743.23 132.2C744.54 132.21 745.44 133.6 745.44 135.72C745.44 137.83 744.54 139.22 743.23 139.22C741.92 139.22 741.02 137.83 741.02 135.72ZM768.01 135.86L762.62 135.86L762.62 134.57L766.47 134.57L766.47 130.6L757.69 130.6L757.69 134.57L761.49 134.57L761.49 135.86L756.15 135.86L756.15 136.81L768.01 136.81ZM757.58 138.79L765.36 138.79L765.36 139.95L757.61 139.95L757.61 143.04L766.88 143.04L766.88 142.13L758.75 142.13L758.75 140.81L766.49 140.81L766.49 137.9L757.58 137.9ZM758.83 133.65L758.83 131.53L765.33 131.53L765.33 133.65ZM779.89 130.16L778.75 130.16L778.75 133.14L776.14 133.14L776.14 134.1L778.75 134.1L778.75 136.7L776.04 136.7L776.04 137.66L778.75 137.66L778.75 143.22L779.89 143.22ZM769.57 132.3L774.17 132.3L774.17 135.04L769.61 135.04L769.61 140.17L770.58 140.17C772.66 140.17 774.33 140.1 776.41 139.77L776.3 138.81C774.33 139.11 772.71 139.19 770.75 139.19L770.75 135.98L775.29 135.98L775.29 131.35L769.57 131.35ZM792.59 136.27L784.76 136.27L784.76 132.17L792.46 132.17L792.46 131.23L783.6 131.23L783.6 137.21L787.44 137.21L787.44 140.58L782.08 140.58L782.08 141.55L794 141.55L794 140.58L788.56 140.58L788.56 137.21L792.59 137.21ZM809.6 130.16L808.46 130.16L808.46 135.01L805.34 135.01L805.34 131.19L804.21 131.19L804.21 134.59L800.49 134.59L800.49 131.19L799.33 131.19L799.33 139.92L805.34 139.92L805.34 135.96L808.46 135.96L808.46 143.22L809.6 143.22ZM800.49 138.97L800.49 135.51L804.21 135.51L804.21 138.97ZM818.95 131.35L812.6 131.35L812.6 140.05L813.64 140.05C816.15 140.04 817.9 139.97 819.96 139.63L819.84 138.67C817.85 139.01 816.18 139.1 813.75 139.1L813.75 135.95L818.48 135.95L818.48 135.01L813.75 135.01L813.75 132.32L818.95 132.32ZM821.38 143.19L822.53 143.19L822.53 130.16L821.38 130.16ZM835.18 131.48L825.99 131.48L825.99 132.43L834.02 132.43L834.02 132.79C834.01 134.35 834.01 136.17 833.52 138.66L834.69 138.79C835.16 136.17 835.16 134.38 835.18 132.79ZM824.73 141.34L836.6 141.34L836.6 140.39L830.52 140.39L830.52 135.73L829.39 135.73L829.39 140.39L824.73 140.39ZM839.83 141.02L838.41 141.02L837.61 145L838.69 145ZM856.06 130.16L854.91 130.16L854.91 143.22L856.06 143.22ZM846.09 140.07L852.24 140.07L852.24 131.28L851.11 131.28L851.11 134.72L847.23 134.72L847.23 131.28L846.09 131.28ZM847.23 139.1L847.23 135.64L851.11 135.64L851.11 139.1ZM870.16 136.61L867.21 136.61L867.21 134.77C868.24 134.36 868.82 133.7 868.82 132.83C868.82 131.3 867.06 130.42 864.22 130.41C861.37 130.42 859.61 131.3 859.61 132.83C859.61 133.71 860.2 134.37 861.24 134.77L861.24 136.61L858.29 136.61L858.29 137.56L870.16 137.56ZM859.73 140.86C859.72 142.34 861.4 143.16 864.22 143.16C867.01 143.16 868.69 142.34 868.71 140.86C868.69 139.37 867.01 138.55 864.22 138.56C861.4 138.55 859.72 139.37 859.73 140.86ZM860.8 132.83C860.79 131.89 862.09 131.32 864.22 131.32C866.33 131.32 867.64 131.89 867.65 132.83C867.64 133.78 866.33 134.33 864.22 134.34C862.09 134.33 860.79 133.78 860.8 132.83ZM860.9 140.86C860.88 139.97 862.14 139.45 864.22 139.44C866.29 139.45 867.54 139.97 867.55 140.86C867.54 141.74 866.29 142.27 864.22 142.26C862.14 142.27 860.88 141.74 860.9 140.86ZM862.38 136.61L862.38 135.09C862.93 135.18 863.54 135.23 864.22 135.23C864.9 135.23 865.52 135.18 866.07 135.08L866.07 136.61ZM881.99 130.16L880.83 130.16L880.83 143.22L881.99 143.22ZM871.74 135.72C871.75 138.49 873.12 140.25 875.06 140.24C877 140.25 878.4 138.49 878.39 135.72C878.4 132.95 877 131.18 875.06 131.17C873.12 131.18 871.75 132.95 871.74 135.72ZM872.85 135.72C872.85 133.6 873.76 132.21 875.06 132.2C876.37 132.21 877.28 133.6 877.28 135.72C877.28 137.83 876.37 139.22 875.06 139.22C873.76 139.22 872.85 137.83 872.85 135.72ZM891.88 133.84L891.88 131.39L890.77 131.39L890.77 133.91C890.77 136.15 889.65 138.47 887.84 139.51L888.58 140.36C889.88 139.58 890.85 138.13 891.33 136.42C891.8 137.99 892.7 139.32 893.96 140.04L894.65 139.13C892.91 138.19 891.88 135.98 891.88 133.84ZM895.13 142.53L896.25 142.53L896.25 136.36L898.03 136.36L898.03 143.19L899.15 143.19L899.15 130.16L898.03 130.16L898.03 135.41L896.25 135.41L896.25 130.44L895.13 130.44ZM905.61 134.16L905.61 132.46L908.71 132.46L908.71 131.51L901.37 131.51L901.37 132.46L904.45 132.46L904.45 134.16C904.44 136.42 902.81 138.88 900.95 139.77L901.64 140.68C903.12 139.93 904.44 138.28 905.05 136.37C905.66 138.17 906.97 139.67 908.49 140.36L909.14 139.45C907.22 138.62 905.61 136.38 905.61 134.16ZM910.53 143.19L911.68 143.19L911.68 130.16L910.53 130.16ZM921.31 130.91C919.37 130.92 917.92 132.16 917.92 133.91C917.92 135.69 919.37 136.92 921.31 136.93C923.26 136.92 924.69 135.69 924.69 133.91C924.69 132.16 923.26 130.92 921.31 130.91ZM919.05 133.91C919.05 132.74 920.03 131.88 921.31 131.88C922.6 131.88 923.57 132.74 923.56 133.91C923.57 135.11 922.6 135.98 921.31 135.98C920.03 135.98 919.05 135.11 919.05 133.91ZM919.07 142.83L919.68 142.83C920.53 142.84 921.77 142.78 923.04 142.37L922.86 141.44C921.94 141.75 920.94 141.86 920.18 141.89L920.18 138.09L919.07 138.09ZM922.58 139.04L929.16 139.04L929.16 138.15L926.45 138.15L926.45 136.99L925.32 136.99L925.32 138.15L922.58 138.15ZM923.45 141.33C923.44 142.45 924.43 143.16 925.86 143.16C927.29 143.16 928.3 142.45 928.31 141.33C928.3 140.2 927.29 139.48 925.86 139.48C924.43 139.48 923.44 140.2 923.45 141.33ZM924.47 141.33C924.47 140.73 925.05 140.32 925.86 140.32C926.68 140.32 927.26 140.73 927.26 141.33C927.26 141.94 926.68 142.33 925.86 142.34C925.05 142.33 924.47 141.94 924.47 141.33ZM926.71 136.68L927.86 136.68L927.86 134.06L929.82 134.06L929.82 133.11L927.86 133.11L927.86 130.16L926.71 130.16ZM941.79 130.16L940.69 130.16L940.69 143.19L941.79 143.19ZM930.65 139.54L931.33 140.37C933.14 139.3 934.4 137.96 935.19 136.45L937.95 136.45L937.95 142.53L939.05 142.53L939.05 130.52L937.95 130.52L937.95 135.51L935.61 135.51C936.06 134.35 936.26 133.12 936.26 131.83L931.21 131.83L931.21 132.79L935.12 132.79C934.9 135.51 933.48 137.86 930.65 139.54Z" fill="#767A7E"/><path d="M705.19 158.16L705.19 156.46L708.29 156.46L708.29 155.51L700.95 155.51L700.95 156.46L704.03 156.46L704.03 158.16C704.02 160.42 702.4 162.88 700.53 163.77L701.22 164.68C702.7 163.93 704.02 162.28 704.63 160.37C705.24 162.17 706.55 163.67 708.07 164.36L708.72 163.45C706.8 162.62 705.19 160.38 705.19 158.16ZM710.11 167.19L711.26 167.19L711.26 154.16L710.11 154.16ZM720.48 155.53L714.47 155.53L714.47 156.48L719.33 156.48C719.27 157.28 719.13 158.05 718.9 158.78L713.81 159.12L714 160.14L718.53 159.7C717.71 161.47 716.2 162.97 713.75 164.14L714.4 165.06C719.11 162.76 720.46 159.28 720.48 155.53ZM723.1 167.19L724.26 167.19L724.26 154.16L723.1 154.16ZM733.05 155.31L727.07 155.31L727.07 161.39L733.05 161.39L733.05 160.21L736.09 160.21L736.09 163.69L737.25 163.69L737.25 154.18L736.09 154.18L736.09 156.46L733.05 156.46ZM728.21 160.46L728.21 156.26L731.92 156.26L731.92 160.46ZM728.83 166.91L737.54 166.91L737.54 165.94L729.99 165.94L729.99 162.84L728.83 162.84ZM733.05 159.26L733.05 157.43L736.09 157.43L736.09 159.26ZM744 157.67L744 155.29L742.83 155.29L742.83 157.67C742.82 160.07 741.32 162.57 739.4 163.51L740.15 164.43C741.63 163.65 742.85 161.98 743.43 160.03C744.01 161.88 745.23 163.44 746.71 164.2L747.4 163.26C745.51 162.4 744 160.02 744 157.67ZM745.98 159.55L749.07 159.55L749.07 167.22L750.21 167.22L750.21 154.16L749.07 154.16L749.07 158.62L745.98 158.62ZM767.29 154.16L766.2 154.16L766.2 167.19L767.29 167.19ZM756.13 163.54L756.84 164.37C759.3 162.9 760.73 160.95 761.35 158.75L763.56 158.75L763.56 161.06L761.14 161.06L761.14 162.02L763.56 162.02L763.56 166.53L764.66 166.53L764.66 154.52L763.56 154.52L763.56 157.8L761.58 157.8C761.7 157.16 761.76 156.5 761.76 155.83L756.72 155.83L756.72 156.79L760.62 156.79C760.39 159.51 758.97 161.86 756.13 163.54ZM781.02 160.71L775.6 160.71L775.6 158.71L774.47 158.71L774.47 160.71L769.11 160.71L769.11 161.66L781.02 161.66ZM769.83 158.49L770.27 159.41C772.27 159.06 774.22 158.03 775.04 156.52C775.86 158.02 777.82 159.06 779.79 159.41L780.26 158.49C777.96 158.17 775.62 156.72 775.62 154.98L775.62 154.37L774.46 154.37L774.46 154.98C774.46 156.72 772.13 158.17 769.83 158.49ZM770.43 163.86L778.35 163.86L778.35 167.19L779.51 167.19L779.51 162.94L770.43 162.94ZM796.3 157.67L788.58 157.67L788.58 155.63L796.17 155.63L796.17 154.68L787.42 154.68L787.42 158.59L791.2 158.59L791.2 159.85L785.84 159.85L785.84 160.79L797.71 160.79L797.71 159.85L792.34 159.85L792.34 158.59L796.3 158.59ZM787.28 162.78L795.05 162.78L795.05 163.95L787.3 163.95L787.3 167.04L796.58 167.04L796.58 166.12L788.45 166.12L788.45 164.8L796.18 164.8L796.18 161.9L787.28 161.9ZM809.56 154.16L808.41 154.16L808.41 167.22L809.56 167.22ZM799.54 156.33L804.44 156.33L804.44 159.07L799.57 159.07L799.57 164.05L800.65 164.05C802.9 164.05 804.88 163.96 807.27 163.58L807.15 162.62C804.82 162.99 802.9 163.09 800.74 163.08L800.74 160.01L805.6 160.01L805.6 155.38L799.54 155.38ZM822.3 158.12L814.52 158.12L814.52 154.65L813.38 154.65L813.38 159.04L822.3 159.04ZM811.75 161.75L823.68 161.75L823.68 160.81L811.75 160.81ZM813.31 166.86L822.37 166.86L822.37 165.91L814.45 165.91L814.45 163.08L813.31 163.08ZM832.19 154.65C830.22 154.65 828.8 155.84 828.8 157.53C828.8 159.23 830.22 160.4 832.19 160.4C834.14 160.4 835.55 159.23 835.56 157.53C835.55 155.84 834.14 154.65 832.19 154.65ZM829.93 157.53C829.92 156.41 830.88 155.61 832.19 155.61C833.48 155.61 834.44 156.41 834.44 157.53C834.44 158.68 833.48 159.47 832.19 159.47C830.88 159.47 829.92 158.68 829.93 157.53ZM830.78 162.41L838.11 162.41L838.11 163.76L830.81 163.76L830.81 167.01L839.72 167.01L839.72 166.09L831.94 166.09L831.94 164.62L839.25 164.62L839.25 161.49L830.78 161.49ZM838.11 160.86L839.25 160.86L839.25 154.16L838.11 154.16ZM842.84 166.09C843.36 166.08 843.78 165.66 843.77 165.14C843.78 164.62 843.36 164.2 842.84 164.2C842.32 164.2 841.88 164.62 841.9 165.14C841.88 165.66 842.32 166.08 842.84 166.09Z" fill="#767A7E"/><line x1="36" y1="222" x2="964" y2="222" stroke="#E7E7E8"/><path d="M14 4h1v1h-1zM13 5h2v1h-2zM12 6h2v1h-2zM11 7h2v1h-2zM1 8h2v1h-2zM10 8h2v1h-2zM1 9h3v1h-3zM9 9h2v1h-2zM2 10h3v1h-3zM8 10h2v1h-2zM3 11h3v1h-3zM7 11h2v1h-2zM4 12h4v1h-4zM5 13h2v1h-2z" transform="translate(36 241) scale(0.8)" fill="#42B4FF"/><path d="M57.42 253L58.34 250.41L62.04 250.41L62.96 253L64.16 253L60.8 243.81L59.59 243.81L56.23 253ZM58.69 249.41L60.15 245.29L60.23 245.29L61.69 249.41ZM67.11 253L68.29 253L70.31 245.73L70.38 245.73L72.39 253L73.57 253L76.08 243.81L74.93 243.81L73.01 251.25L72.94 251.25L70.98 243.81L69.7 243.81L67.76 251.25L67.67 251.25L65.75 243.81L64.59 243.81ZM82.32 246.12L83.43 246.12C83.39 244.72 82.11 243.68 80.32 243.68C78.54 243.68 77.16 244.7 77.16 246.26C77.16 247.5 78.06 248.24 79.5 248.66L80.63 248.96C81.59 249.24 82.44 249.58 82.44 250.47C82.44 251.48 81.49 252.13 80.22 252.12C79.13 252.13 78.17 251.64 78.08 250.61L76.91 250.61C77.02 252.14 78.24 253.16 80.22 253.17C82.36 253.16 83.56 252 83.56 250.5C83.56 248.78 81.94 248.21 80.96 247.96L80.04 247.71C79.35 247.53 78.27 247.17 78.27 246.21C78.27 245.33 79.07 244.7 80.29 244.7C81.38 244.7 82.22 245.22 82.32 246.12ZM93.38 242.74L92.38 242.74L92.38 254.03L93.38 254.03L93.38 248.18L95.2 248.18L95.2 247.34L93.38 247.34ZM84.72 251.1L85.28 251.88C88.95 250.07 90.45 247.15 90.46 243.96L85.24 243.96L85.24 244.8L89.45 244.8C89.22 247.47 87.63 249.65 84.72 251.1ZM108.5 242.75L107.49 242.75L107.49 245.88L105.17 245.88L105.17 246.7L107.49 246.7L107.49 251.03L108.5 251.03ZM99.19 248.77L99.71 249.58C101.05 249.08 102.09 248.05 102.58 246.74C103.07 247.91 104.05 248.85 105.32 249.32L105.84 248.52C104.19 247.95 103.06 246.54 103.06 245.08L103.06 244.49L105.59 244.49L105.59 243.67L99.51 243.67L99.51 244.49L102.06 244.49L102.06 245.08C102.06 246.7 100.85 248.19 99.19 248.77ZM101.25 253.79L108.81 253.79L108.81 252.95L102.25 252.95L102.25 250.28L101.25 250.28ZM116.99 245.95L116.99 243.81L116.02 243.81L116.02 245.99C116.02 247.93 115.07 249.93 113.51 250.84L114.14 251.59C115.27 250.91 116.11 249.61 116.52 248.11C116.92 249.48 117.7 250.69 118.79 251.35L119.36 250.58C117.86 249.69 116.99 247.75 116.99 245.95ZM118.12 247.64L120.04 247.64L120.04 253.46L120.97 253.46L120.97 242.98L120.04 242.98L120.04 246.79L118.12 246.79ZM122.35 254.03L123.31 254.03L123.31 242.74L122.35 242.74ZM134.53 242.74L133.58 242.74L133.58 254.03L134.53 254.03ZM124.86 250.87L125.47 251.59C127.6 250.31 128.84 248.63 129.39 246.72L131.3 246.72L131.3 248.72L129.2 248.72L129.2 249.55L131.3 249.55L131.3 253.46L132.25 253.46L132.25 243.05L131.3 243.05L131.3 245.89L129.58 245.89C129.68 245.34 129.73 244.77 129.73 244.19L125.37 244.19L125.37 245.01L128.74 245.01C128.55 247.38 127.32 249.41 124.86 250.87ZM149.02 242.74L148.07 242.74L148.07 247.29L146.4 247.29L146.4 243L145.49 243L145.49 253.44L146.4 253.44L146.4 248.11L148.07 248.11L148.07 254.03L149.02 254.03ZM139.79 251.24L140.51 251.24C142.25 251.23 143.39 251.18 144.75 250.91L144.66 250.07C143.41 250.32 142.33 250.38 140.78 250.38L140.78 244.95L144.02 244.95L144.02 244.13L139.79 244.13ZM157.36 243.96L154.49 243.96L154.49 242.69L153.5 242.69L153.5 243.96L150.63 243.96L150.63 244.77L157.36 244.77ZM151.28 247.4C151.27 248.63 152.36 249.43 154 249.43C155.61 249.43 156.7 248.63 156.71 247.4C156.7 246.16 155.61 245.37 154 245.36C152.36 245.37 151.27 246.16 151.28 247.4ZM152.04 251.24L158.44 251.24L158.44 254.03L159.43 254.03L159.43 250.42L152.04 250.42ZM152.23 247.4C152.22 246.63 152.93 246.14 154 246.13C155.05 246.14 155.76 246.63 155.77 247.4C155.76 248.15 155.05 248.64 154 248.63C152.93 248.64 152.22 248.15 152.23 247.4ZM158.44 249.8L159.43 249.8L159.43 246.72L161.13 246.72L161.13 245.88L159.43 245.88L159.43 242.74L158.44 242.74ZM173.93 242.74L172.94 242.74L172.94 250.92L173.93 250.92L173.93 246.94L175.64 246.94L175.64 246.11L173.93 246.11ZM165.64 248.91L166.51 248.91C168.89 248.91 170.23 248.84 171.82 248.53L171.69 247.71C170.18 248.01 168.89 248.08 166.63 248.07L166.63 244.56L170.66 244.56L170.66 243.72L165.64 243.72ZM166.87 253.79L174.45 253.79L174.45 252.95L167.85 252.95L167.85 250.09L166.87 250.09ZM180.06 243.3C178.37 243.29 177.16 244.22 177.16 245.6C177.16 246.98 178.37 247.92 180.06 247.91C181.75 247.92 182.96 246.98 182.95 245.6C182.96 244.22 181.75 243.29 180.06 243.3ZM176.31 248.87L176.45 249.72C177.39 249.72 178.48 249.71 179.63 249.66L179.63 253.69L180.62 253.69L180.62 249.6C181.71 249.53 182.83 249.41 183.91 249.22L183.84 248.47C181.33 248.84 178.43 248.88 176.31 248.87ZM178.14 245.6C178.13 244.72 178.94 244.1 180.06 244.11C181.19 244.1 182.01 244.72 182 245.6C182.01 246.48 181.19 247.09 180.06 247.08C178.94 247.09 178.13 246.48 178.14 245.6ZM184.67 254.04L185.64 254.04L185.64 242.75L184.67 242.75ZM197.91 251.79L193.2 251.79L193.2 249.66L196.87 249.66L196.87 248.84L189.86 248.84L189.86 247L196.6 247L196.6 243.58L188.84 243.58L188.84 244.41L195.62 244.41L195.62 246.18L188.87 246.18L188.87 249.66L192.22 249.66L192.22 251.79L187.57 251.79L187.57 252.63L197.91 252.63ZM212.39 248.48L202.06 248.48L202.06 249.31L206.81 249.31L206.81 251.62L207.81 251.62L207.81 249.31L212.39 249.31ZM203.23 245.31C203.22 246.7 204.8 247.56 207.21 247.55C209.63 247.56 211.19 246.7 211.19 245.31C211.19 243.9 209.63 243.04 207.21 243.03C204.8 243.04 203.22 243.9 203.23 245.31ZM203.39 253.79L211.24 253.79L211.24 252.94L204.4 252.94L204.4 250.49L203.39 250.49ZM204.29 245.31C204.28 244.41 205.46 243.85 207.21 243.85C208.97 243.85 210.13 244.41 210.13 245.31C210.13 246.18 208.97 246.74 207.21 246.74C205.46 246.74 204.28 246.18 204.29 245.31ZM216.42 243.43C214.73 243.42 213.48 244.53 213.49 246.11C213.48 247.67 214.73 248.78 216.42 248.77C217.37 248.78 218.18 248.42 218.7 247.82L221.66 247.82L221.66 249.43L222.66 249.43L222.66 242.74L221.66 242.74L221.66 244.38L218.7 244.38C218.18 243.78 217.37 243.42 216.42 243.43ZM214.44 246.11C214.44 245.03 215.26 244.28 216.42 244.29C217.54 244.28 218.37 245.03 218.37 246.11C218.37 247.15 217.54 247.93 216.42 247.92C215.26 247.93 214.44 247.15 214.44 246.11ZM215.14 251.84C215.13 253.22 216.58 254 218.92 254C221.25 254 222.7 253.22 222.7 251.84C222.7 250.49 221.25 249.7 218.92 249.7C216.58 249.7 215.13 250.49 215.14 251.84ZM216.11 251.84C216.11 250.99 217.19 250.48 218.92 250.47C220.65 250.48 221.73 250.99 221.72 251.84C221.73 252.7 220.65 253.21 218.92 253.2C217.19 253.21 216.11 252.7 216.11 251.84ZM219.18 245.19L221.66 245.19L221.66 247L219.19 247C219.28 246.72 219.34 246.42 219.34 246.11C219.34 245.78 219.28 245.47 219.18 245.19ZM233.28 242.74L232.29 242.74L232.29 254.03L233.28 254.03L233.28 248.23L235.17 248.23L235.17 247.4L233.28 247.4ZM224.48 245.38L231.2 245.38L231.2 244.56L228.38 244.56L228.38 242.88L227.39 242.88L227.39 244.56L224.48 244.56ZM225.13 248.91C225.12 250.44 226.29 251.5 227.89 251.5C229.49 251.5 230.65 250.44 230.66 248.91C230.65 247.39 229.49 246.32 227.89 246.32C226.29 246.32 225.12 247.39 225.13 248.91ZM226.08 248.91C226.07 247.89 226.84 247.15 227.89 247.16C228.94 247.15 229.7 247.89 229.71 248.91C229.7 249.94 228.94 250.66 227.89 250.65C226.84 250.66 226.07 249.94 226.08 248.91ZM244.91 246.17L238.17 246.17L238.17 243.16L237.17 243.16L237.17 246.97L244.91 246.97ZM235.77 249.32L246.1 249.32L246.1 248.51L235.77 248.51ZM237.11 253.75L244.97 253.75L244.97 252.92L238.1 252.92L238.1 250.47L237.11 250.47ZM255.38 249.88C252.96 249.88 251.43 250.64 251.43 251.95C251.43 253.24 252.96 254 255.38 254C257.8 254 259.33 253.24 259.34 251.95C259.33 250.64 257.8 249.88 255.38 249.88ZM250.29 248.82L260.56 248.82L260.56 248.01L255.52 248.01L255.52 245.83L254.54 245.83L254.54 248.01L250.29 248.01ZM251.51 244.14L258.26 244.14L258.26 244.28C258.26 245.16 258.26 246 257.96 247.16L258.93 247.27C259.25 246.11 259.25 245.19 259.25 244.28L259.25 243.33L251.51 243.33ZM252.42 251.95C252.42 251.14 253.58 250.65 255.38 250.64C257.18 250.65 258.34 251.14 258.35 251.95C258.34 252.73 257.18 253.22 255.38 253.22C253.58 253.22 252.42 252.73 252.42 251.95ZM265.51 244.38L265.51 243.3L264.5 243.3L264.5 244.38C264.5 246.09 263.31 247.65 261.63 248.28L262.15 249.06C263.47 248.55 264.51 247.5 265.01 246.16C265.52 247.41 266.55 248.38 267.86 248.86L268.37 248.07C266.69 247.49 265.5 246.02 265.51 244.38ZM263.24 250.93L269.84 250.93L269.84 254.03L270.83 254.03L270.83 250.11L263.24 250.11ZM269.84 249.55L270.83 249.55L270.83 242.74L269.84 242.74ZM282.76 243.96L279.89 243.96L279.89 242.69L278.9 242.69L278.9 243.96L276.04 243.96L276.04 244.77L282.76 244.77ZM276.68 247.4C276.68 248.63 277.77 249.43 279.4 249.43C281.02 249.43 282.1 248.63 282.12 247.4C282.1 246.16 281.02 245.37 279.4 245.36C277.77 245.37 276.68 246.16 276.68 247.4ZM277.44 251.24L283.84 251.24L283.84 254.03L284.83 254.03L284.83 250.42L277.44 250.42ZM277.63 247.4C277.63 246.63 278.33 246.14 279.4 246.13C280.45 246.14 281.16 246.63 281.18 247.4C281.16 248.15 280.45 248.64 279.4 248.63C278.33 248.64 277.63 248.15 277.63 247.4ZM283.84 249.8L284.83 249.8L284.83 246.72L286.53 246.72L286.53 245.88L284.83 245.88L284.83 242.74L283.84 242.74ZM290.61 244.99L290.61 243.45L289.66 243.45L289.66 244.99C289.65 246.25 288.74 247.71 287.26 248.35L287.8 249.13C288.91 248.65 289.73 247.69 290.14 246.61C290.55 247.59 291.33 248.39 292.41 248.81L292.93 248.05C291.49 247.5 290.62 246.24 290.61 244.99ZM289.31 252C289.3 253.26 290.75 254 293.1 254C295.43 254 296.89 253.26 296.89 252C296.89 250.72 295.43 249.97 293.1 249.98C290.75 249.97 289.3 250.72 289.31 252ZM290.3 252C290.29 251.22 291.36 250.75 293.1 250.74C294.81 250.75 295.89 251.22 295.9 252C295.89 252.77 294.81 253.23 293.1 253.23C291.36 253.23 290.29 252.77 290.3 252ZM293.44 249.37L294.38 249.37L294.38 246.61L295.88 246.61L295.88 249.72L296.83 249.72L296.83 242.75L295.88 242.75L295.88 245.79L294.38 245.79L294.38 242.97L293.44 242.97ZM307.48 243.92L302.37 243.92L302.37 244.75L306.5 244.75C306.45 245.45 306.33 246.11 306.12 246.75L301.79 247.03L301.97 247.9L305.82 247.53C305.11 249.06 303.83 250.36 301.76 251.4L302.33 252.16C306.31 250.16 307.47 247.18 307.48 243.92ZM307.44 248.11L310.1 248.11L310.1 254.03L311.09 254.03L311.09 242.74L310.1 242.74L310.1 247.29L307.44 247.29ZM323.3 249.28L312.97 249.28L312.97 250.11L315.62 250.11L315.62 254.12L316.61 254.12L316.61 250.11L319.67 250.11L319.67 254.12L320.66 254.12L320.66 250.11L323.3 250.11ZM314.3 247.76L321.95 247.76L321.95 243.36L314.3 243.36ZM315.28 246.96L315.28 244.18L320.96 244.18L320.96 246.96ZM333.52 242.74L332.53 242.74L332.53 254.03L333.52 254.03ZM324.95 251.12L325.86 251.12C327.67 251.12 329.46 250.98 331.46 250.56L331.32 249.71C329.43 250.11 327.65 250.25 325.93 250.26L325.93 243.86L324.95 243.86ZM341.67 243.77L336.17 243.77L336.17 251.31L337.07 251.31C339.25 251.31 340.76 251.24 342.55 250.94L342.44 250.12C340.72 250.41 339.27 250.49 337.16 250.49L337.16 247.76L341.26 247.76L341.26 246.94L337.16 246.94L337.16 244.61L341.67 244.61ZM343.78 254.03L344.78 254.03L344.78 242.74L343.78 242.74Z" fill="#767A7E"/><path d="M14 4h1v1h-1zM13 5h2v1h-2zM12 6h2v1h-2zM11 7h2v1h-2zM1 8h2v1h-2zM10 8h2v1h-2zM1 9h3v1h-3zM9 9h2v1h-2zM2 10h3v1h-3zM8 10h2v1h-2zM3 11h3v1h-3zM7 11h2v1h-2zM4 12h4v1h-4zM5 13h2v1h-2z" transform="translate(380.2275390625 241) scale(0.8)" fill="#42B4FF"/><path d="M410.04 242.75L409.04 242.75L409.04 245.88L406.71 245.88L406.71 246.7L409.04 246.7L409.04 251.03L410.04 251.03ZM400.74 248.77L401.26 249.58C402.6 249.08 403.64 248.05 404.13 246.74C404.61 247.91 405.6 248.85 406.87 249.32L407.39 248.52C405.74 247.95 404.61 246.54 404.61 245.08L404.61 244.49L407.13 244.49L407.13 243.67L401.05 243.67L401.05 244.49L403.6 244.49L403.6 245.08C403.6 246.7 402.4 248.19 400.74 248.77ZM402.79 253.79L410.36 253.79L410.36 252.95L403.79 252.95L403.79 250.28L402.79 250.28ZM420.9 243.3L413.23 243.3L413.23 244.11L419.91 244.11C419.91 244.95 419.91 245.95 419.61 247.33L411.92 247.33L411.92 248.14L416.57 248.14L416.57 250.22L412.99 250.22L412.99 251.04L419.97 251.04L419.97 254.03L420.97 254.03L420.97 250.22L417.56 250.22L417.56 248.14L422.25 248.14L422.25 247.33L420.62 247.33C420.9 245.97 420.9 244.95 420.9 244.11ZM436.07 242.74L435.11 242.74L435.11 247.29L433.45 247.29L433.45 243L432.54 243L432.54 253.44L433.45 253.44L433.45 248.11L435.11 248.11L435.11 254.03L436.07 254.03ZM426.84 251.24L427.56 251.24C429.29 251.23 430.44 251.18 431.8 250.91L431.71 250.07C430.46 250.32 429.38 250.38 427.83 250.38L427.83 244.95L431.06 244.95L431.06 244.13L426.84 244.13ZM444.41 243.96L441.54 243.96L441.54 242.69L440.55 242.69L440.55 243.96L437.68 243.96L437.68 244.77L444.41 244.77ZM438.33 247.4C438.32 248.63 439.41 249.43 441.04 249.43C442.66 249.43 443.75 248.63 443.76 247.4C443.75 246.16 442.66 245.37 441.04 245.36C439.41 245.37 438.32 246.16 438.33 247.4ZM439.09 251.24L445.49 251.24L445.49 254.03L446.48 254.03L446.48 250.42L439.09 250.42ZM439.28 247.4C439.27 246.63 439.98 246.14 441.04 246.13C442.1 246.14 442.81 246.63 442.82 247.4C442.81 248.15 442.1 248.64 441.04 248.63C439.98 248.64 439.27 248.15 439.28 247.4ZM445.49 249.8L446.48 249.8L446.48 246.72L448.18 246.72L448.18 245.88L446.48 245.88L446.48 242.74L445.49 242.74ZM453.12 253L454.04 250.41L457.73 250.41L458.65 253L459.86 253L456.49 243.81L455.29 243.81L451.92 253ZM454.39 249.41L455.85 245.29L455.92 245.29L457.38 249.41ZM466.12 246.12L467.23 246.12C467.19 244.72 465.91 243.68 464.12 243.68C462.34 243.68 460.96 244.7 460.96 246.26C460.96 247.5 461.86 248.24 463.3 248.66L464.43 248.96C465.39 249.24 466.24 249.58 466.24 250.47C466.24 251.48 465.29 252.13 464.02 252.12C462.93 252.13 461.97 251.64 461.88 250.61L460.71 250.61C460.82 252.14 462.04 253.16 464.02 253.17C466.15 253.16 467.36 252 467.36 250.5C467.36 248.78 465.74 248.21 464.76 247.96L463.84 247.71C463.15 247.53 462.07 247.17 462.07 246.21C462.07 245.33 462.87 244.7 464.08 244.7C465.18 244.7 466.02 245.22 466.12 246.12ZM469 253L472.34 253C474.51 253 475.42 251.94 475.42 250.56C475.42 249.1 474.41 248.32 473.56 248.26L473.56 248.18C474.36 247.95 475.06 247.43 475.05 246.25C475.06 244.89 474.15 243.81 472.22 243.81L469 243.81ZM470.14 251.98L470.14 248.82L472.39 248.82C473.57 248.82 474.32 249.62 474.32 250.55C474.32 251.35 473.77 251.98 472.32 251.98ZM470.14 247.83L470.14 244.82L472.22 244.82C473.42 244.82 473.96 245.46 473.96 246.26C473.96 247.22 473.18 247.84 472.18 247.83ZM483.32 246.68L484.5 246.68C484.16 244.9 482.66 243.68 480.72 243.68C478.35 243.68 476.69 245.5 476.69 248.4C476.69 251.31 478.34 253.13 480.79 253.13C482.98 253.13 484.55 251.66 484.55 249.38L484.55 248.39L481.03 248.39L481.03 249.39L483.43 249.39C483.41 251.03 482.34 252.05 480.79 252.06C479.09 252.05 477.8 250.77 477.8 248.4C477.8 246.03 479.09 244.75 480.72 244.75C482.03 244.75 482.92 245.5 483.32 246.68ZM489.11 243.48C487.34 243.49 486.09 244.56 486.1 246.13C486.09 247.55 487.11 248.56 488.61 248.74L488.61 250.7C487.52 250.73 486.47 250.73 485.57 250.74L485.73 251.58C487.72 251.59 490.38 251.57 492.78 251.16L492.71 250.41C491.73 250.54 490.67 250.61 489.62 250.66L489.62 248.74C491.08 248.55 492.11 247.55 492.12 246.13C492.11 244.56 490.84 243.49 489.11 243.48ZM487.08 246.13C487.06 245.07 487.92 244.35 489.11 244.34C490.28 244.35 491.13 245.07 491.14 246.13C491.13 247.19 490.28 247.93 489.11 247.92C487.92 247.93 487.06 247.19 487.08 246.13ZM493.44 254.03L494.43 254.03L494.43 248.26L496.27 248.26L496.27 247.4L494.43 247.4L494.43 242.74L493.44 242.74ZM509.51 242.74L508.51 242.74L508.51 254.05L509.51 254.05ZM500.62 247.55C500.63 249.96 501.82 251.48 503.5 251.48C505.18 251.48 506.39 249.96 506.39 247.55C506.39 245.15 505.18 243.62 503.5 243.62C501.82 243.62 500.63 245.15 500.62 247.55ZM501.59 247.55C501.59 245.72 502.37 244.51 503.5 244.51C504.64 244.51 505.42 245.72 505.42 247.55C505.42 249.39 504.64 250.59 503.5 250.59C502.37 250.59 501.59 249.39 501.59 247.55ZM514.47 243.62C512.8 243.62 511.64 245.15 511.64 247.55C511.64 249.96 512.8 251.48 514.47 251.48C516.05 251.48 517.18 250.1 517.28 247.88L519.8 247.88L519.8 254.05L520.79 254.05L520.79 242.74L519.8 242.74L519.8 247.06L517.27 247.06C517.12 244.94 516.01 243.62 514.47 243.62ZM512.59 247.55C512.6 245.72 513.36 244.51 514.47 244.51C515.58 244.51 516.35 245.72 516.35 247.55C516.35 249.39 515.58 250.59 514.47 250.59C513.36 250.59 512.6 249.39 512.59 247.55ZM526.71 246.21L526.71 244.74L529.4 244.74L529.4 243.91L523.04 243.91L523.04 244.74L525.71 244.74L525.71 246.21C525.7 248.16 524.29 250.3 522.67 251.07L523.27 251.86C524.56 251.21 525.7 249.78 526.23 248.12C526.76 249.68 527.89 250.98 529.21 251.58L529.77 250.79C528.11 250.07 526.72 248.13 526.71 246.21ZM530.98 254.03L531.98 254.03L531.98 242.74L530.98 242.74ZM543.04 246.17L536.3 246.17L536.3 243.16L535.31 243.16L535.31 246.97L543.04 246.97ZM533.9 249.32L544.23 249.32L544.23 248.51L533.9 248.51ZM535.24 253.75L543.1 253.75L543.1 252.92L536.23 252.92L536.23 250.47L535.24 250.47ZM549.96 243.97L548.97 243.97L548.97 251.17L549.68 251.17C551.05 251.17 552.32 251.11 553.83 250.79L553.69 249.93C552.34 250.21 551.18 250.28 549.96 250.3ZM552.13 247.38L554.7 247.38L554.7 253.46L555.66 253.46L555.66 243.02L554.7 243.02L554.7 246.55L552.13 246.55ZM557.12 254.03L558.07 254.03L558.07 242.74L557.12 242.74ZM568.78 248.85L561.99 248.85L561.99 247.03L568.42 247.03L568.42 246.23L561.99 246.23L561.99 244.56L568.66 244.56L568.66 243.72L560.98 243.72L560.98 249.66L568.78 249.66ZM559.64 252.56L569.98 252.56L569.98 251.73L559.64 251.73ZM580.22 242.75L579.21 242.75L579.21 250.47L576.6 250.47L576.6 251.24L579.21 251.24L579.21 254.04L580.22 254.04ZM570.83 248.7L570.97 249.55C571.87 249.55 572.91 249.53 573.99 249.5L573.99 253.69L574.99 253.69L574.99 249.45C576.11 249.38 577.28 249.27 578.39 249.08L578.33 248.33C575.84 248.68 572.98 248.69 570.83 248.7ZM571.69 245.54C571.68 246.87 572.85 247.74 574.55 247.74C576.22 247.74 577.4 246.87 577.39 245.54C577.4 244.21 576.22 243.31 574.55 243.31C572.85 243.31 571.68 244.21 571.69 245.54ZM572.63 245.54C572.62 244.68 573.41 244.09 574.55 244.09C575.66 244.09 576.44 244.68 576.45 245.54C576.44 246.39 575.66 246.98 574.55 246.97C573.41 246.98 572.62 246.39 572.63 245.54ZM591.11 243.9L583.36 243.9L583.36 244.74L590.15 244.74L590.15 245.29C590.15 245.87 590.14 246.45 590.12 247.05L583.05 247.34L583.19 248.16L590.08 247.79C590.02 248.66 589.9 249.6 589.64 250.69L590.64 250.78C591.12 248.49 591.12 246.96 591.11 245.29ZM582.11 252.44L592.4 252.44L592.4 251.6L582.11 251.6Z" fill="#767A7E"/><path d="M14 4h1v1h-1zM13 5h2v1h-2zM12 6h2v1h-2zM11 7h2v1h-2zM1 8h2v1h-2zM10 8h2v1h-2zM1 9h3v1h-3zM9 9h2v1h-2zM2 10h3v1h-3zM8 10h2v1h-2zM3 11h3v1h-3zM7 11h2v1h-2zM4 12h4v1h-4zM5 13h2v1h-2z" transform="translate(626.8916015625 241) scale(0.8)" fill="#42B4FF"/><path d="M651.32 245.78L651.32 243.72L650.31 243.72L650.31 245.78C650.3 247.86 648.99 250.03 647.34 250.84L647.98 251.64C649.27 250.96 650.33 249.52 650.83 247.83C651.33 249.43 652.39 250.78 653.67 251.44L654.27 250.63C652.63 249.88 651.32 247.82 651.32 245.78ZM653.04 247.41L655.71 247.41L655.71 254.05L656.71 254.05L656.71 242.74L655.71 242.74L655.71 246.6L653.04 246.6ZM663.73 242.88C661.21 242.88 659.73 243.58 659.73 244.84C659.73 246.11 661.21 246.8 663.73 246.8C666.23 246.8 667.71 246.11 667.71 244.84C667.71 243.58 666.23 242.88 663.73 242.88ZM658.58 248.35L663.22 248.35L663.22 249.42L659.83 249.42L659.83 250.18L666.57 250.18L666.57 251.21L659.85 251.21L659.85 253.9L667.89 253.9L667.89 253.11L660.84 253.11L660.84 251.95L667.55 251.95L667.55 249.42L664.21 249.42L664.21 248.35L668.87 248.35L668.87 247.55L658.58 247.55ZM660.77 244.84C660.75 244.09 661.85 243.66 663.73 243.64C665.6 243.66 666.69 244.09 666.7 244.84C666.69 245.61 665.6 246.03 663.73 246.04C661.85 246.03 660.75 245.61 660.77 244.84ZM673.83 245.78L673.83 243.72L672.84 243.72L672.84 245.78C672.83 247.92 671.44 250.07 669.76 250.84L670.39 251.68C671.71 251.01 672.82 249.58 673.34 247.88C673.88 249.49 674.99 250.83 676.28 251.45L676.89 250.66C675.23 249.91 673.82 247.84 673.83 245.78ZM678.12 254.05L679.13 254.05L679.13 242.74L678.12 242.74ZM690.37 242.75L689.38 242.75L689.38 248.95L690.37 248.95ZM681.63 244.13L685.79 244.13L685.79 245.56L681.65 245.56L681.65 248.72L682.57 248.72C684.65 248.71 686.19 248.65 688.09 248.35L687.97 247.53C686.14 247.83 684.63 247.87 682.62 247.88L682.62 246.35L686.78 246.35L686.78 243.3L681.63 243.3ZM683.04 253.88L690.37 253.88L690.37 249.52L689.38 249.52L689.38 250.87L684.04 250.87L684.04 249.52L683.04 249.52ZM684.04 253.06L684.04 251.67L689.38 251.67L689.38 253.06ZM701.94 242.74L700.99 242.74L700.99 247.29L699.32 247.29L699.32 243L698.41 243L698.41 253.44L699.32 253.44L699.32 248.11L700.99 248.11L700.99 254.03L701.94 254.03ZM692.71 251.24L693.43 251.24C695.17 251.23 696.31 251.18 697.67 250.91L697.58 250.07C696.33 250.32 695.25 250.38 693.7 250.38L693.7 244.95L696.94 244.95L696.94 244.13L692.71 244.13ZM707.22 243.57C705.44 243.57 704.17 244.65 704.17 246.22C704.17 247.79 705.44 248.87 707.22 248.87C708.99 248.87 710.25 247.79 710.25 246.22C710.25 244.65 708.99 243.57 707.22 243.57ZM703.59 250.71L703.73 251.57C705.76 251.57 708.53 251.55 711.12 251.07L711.04 250.33C708.55 250.7 705.67 250.72 703.59 250.71ZM705.15 246.22C705.14 245.17 706.01 244.44 707.22 244.44C708.41 244.44 709.28 245.17 709.28 246.22C709.28 247.27 708.41 248 707.22 248C706.01 248 705.14 247.27 705.15 246.22ZM711.79 254.05L712.78 254.05L712.78 242.74L711.79 242.74ZM721.87 245.17L721.87 244.9L724.42 244.9L724.42 244.09L721.9 244.09L721.9 242.7L720.89 242.7L720.89 244.09L718.34 244.09L718.34 244.9L720.89 244.9L720.89 245.17C720.89 246.72 719.73 248.11 718.07 248.66L718.56 249.46C719.89 248.99 720.92 248.01 721.41 246.77C721.9 247.87 722.9 248.74 724.19 249.15L724.66 248.38C723.01 247.86 721.88 246.56 721.87 245.17ZM719.39 253.19L719.76 253.98C721.47 253.68 723.04 252.78 723.72 251.47C724.4 252.79 725.96 253.67 727.67 253.98L728.09 253.19C726.07 252.85 724.24 251.64 724.24 250.04L724.24 249.8L723.23 249.8L723.23 250.04C723.22 251.61 721.36 252.85 719.39 253.19ZM724.08 246.79L726.38 246.79L726.38 250.58L727.38 250.58L727.38 242.74L726.38 242.74L726.38 245.95L724.08 245.95ZM733.49 253L734.41 250.41L738.1 250.41L739.02 253L740.23 253L736.86 243.81L735.66 243.81L732.29 253ZM734.76 249.41L736.22 245.29L736.29 245.29L737.75 249.41ZM743.17 253L744.35 253L746.37 245.73L746.45 245.73L748.45 253L749.63 253L752.15 243.81L750.99 243.81L749.08 251.25L749 251.25L747.04 243.81L745.76 243.81L743.82 251.25L743.73 251.25L741.81 243.81L740.66 243.81ZM758.38 246.12L759.5 246.12C759.45 244.72 758.17 243.68 756.39 243.68C754.6 243.68 753.22 244.7 753.23 246.26C753.22 247.5 754.12 248.24 755.56 248.66L756.69 248.96C757.66 249.24 758.51 249.58 758.51 250.47C758.51 251.48 757.56 252.13 756.29 252.12C755.2 252.13 754.24 251.64 754.14 250.61L752.97 250.61C753.08 252.14 754.31 253.16 756.29 253.17C758.42 253.16 759.63 252 759.63 250.5C759.63 248.78 758.01 248.21 757.02 247.96L756.11 247.71C755.41 247.53 754.34 247.17 754.33 246.21C754.34 245.33 755.13 244.7 756.35 244.7C757.45 244.7 758.29 245.22 758.38 246.12ZM769.54 246.12L770.66 246.12C770.61 244.72 769.33 243.68 767.55 243.68C765.76 243.68 764.38 244.7 764.39 246.26C764.38 247.5 765.28 248.24 766.72 248.66L767.85 248.96C768.82 249.24 769.67 249.58 769.67 250.47C769.67 251.48 768.72 252.13 767.45 252.12C766.35 252.13 765.4 251.64 765.3 250.61L764.13 250.61C764.24 252.14 765.47 253.16 767.45 253.17C769.58 253.16 770.79 252 770.79 250.5C770.79 248.78 769.17 248.21 768.18 247.96L767.27 247.71C766.57 247.53 765.5 247.17 765.49 246.21C765.5 245.33 766.29 244.7 767.51 244.7C768.61 244.7 769.45 245.22 769.54 246.12ZM775.29 246.11L773.84 246.11L773.84 244.46L772.74 244.46L772.74 246.11L771.7 246.11L771.7 247.02L772.74 247.02L772.74 251.3C772.75 252.52 773.71 253.09 774.63 253.09C774.96 253.09 775.22 253.06 775.39 253.04L775.39 252.02C775.23 252.03 774.94 252.05 774.75 252.05C774.28 252.05 773.84 251.9 773.84 251.02L773.84 247.02L775.29 247.02ZM781.06 250.17C781.05 251.46 780.07 252.04 779.29 252.04C778.41 252.04 777.79 251.4 777.79 250.41L777.79 246.11L776.7 246.11L776.7 250.49C776.69 252.24 777.63 253.09 778.94 253.09C779.97 253.09 780.66 252.53 780.98 251.83L781.06 251.83L781.06 253L782.13 253L782.13 246.11L781.06 246.11ZM786.49 253.14C787.8 253.15 788.25 252.33 788.5 251.95L788.61 251.95L788.61 253L789.68 253L789.68 243.81L788.57 243.81L788.57 247.2L788.5 247.2C788.26 246.83 787.84 246.02 786.5 246.02C784.77 246.02 783.56 247.39 783.56 249.57C783.56 251.76 784.77 253.15 786.49 253.14ZM784.66 249.55C784.66 248.11 785.31 247 786.64 247C787.92 247 788.6 248.02 788.61 249.55C788.6 251.1 787.9 252.16 786.64 252.16C785.33 252.16 784.66 251.01 784.66 249.55ZM794.46 253.14C795.88 253.15 796.91 252.44 797.23 251.39L796.06 251.39C795.81 251.81 795.29 252.17 794.46 252.17C793.24 252.17 792.39 251.38 792.33 249.92L797.33 249.92L797.33 249.46C797.34 246.91 795.81 246.02 794.36 246.02C792.49 246.02 791.24 247.49 791.24 249.61C791.24 251.72 792.47 253.15 794.46 253.14ZM792.34 248.99C792.41 247.92 793.17 246.98 794.36 246.98C795.5 246.98 796.22 247.84 796.23 248.99ZM799.84 248.86C799.84 247.67 800.58 247 801.58 247C802.56 247 803.15 247.63 803.15 248.7L803.15 253L804.24 253L804.24 248.62C804.24 246.87 803.31 246.02 801.91 246.02C800.87 246.02 800.22 246.48 799.9 247.19L799.81 247.19L799.81 246.11L798.75 246.11L798.75 253L799.84 253ZM809 246.11L807.55 246.11L807.55 244.46L806.45 244.46L806.45 246.11L805.41 246.11L805.41 247.02L806.45 247.02L806.45 251.3C806.45 252.52 807.42 253.09 808.34 253.09C808.66 253.09 808.93 253.06 809.1 253.04L809.1 252.02C808.94 252.03 808.65 252.05 808.45 252.05C807.99 252.05 807.54 251.9 807.55 251.02L807.55 247.02L809 247.02ZM813.81 253L817.15 253C819.32 253 820.23 251.94 820.23 250.56C820.23 249.1 819.22 248.32 818.37 248.26L818.37 248.18C819.17 247.95 819.87 247.43 819.87 246.25C819.87 244.89 818.96 243.81 817.03 243.81L813.81 243.81ZM814.95 251.98L814.95 248.82L817.2 248.82C818.38 248.82 819.14 249.62 819.13 250.55C819.14 251.35 818.58 251.98 817.14 251.98ZM814.95 247.83L814.95 244.82L817.03 244.82C818.23 244.82 818.77 245.46 818.77 246.26C818.77 247.22 817.99 247.84 817 247.83ZM826.07 250.17C826.07 251.46 825.09 252.04 824.31 252.04C823.43 252.04 822.81 251.4 822.81 250.41L822.81 246.11L821.72 246.11L821.72 250.49C821.71 252.24 822.65 253.09 823.95 253.09C824.99 253.09 825.67 252.53 826 251.83L826.07 251.83L826.07 253L827.15 253L827.15 246.11L826.07 246.11ZM828.9 253L830 253L830 246.11L828.9 246.11ZM828.69 244.24C828.68 244.64 829.03 244.96 829.45 244.96C829.87 244.96 830.22 244.64 830.22 244.24C830.22 243.83 829.87 243.51 829.45 243.52C829.03 243.51 828.68 243.83 828.69 244.24ZM832.83 243.81L831.74 243.81L831.74 253L832.83 253ZM837.17 253.14C838.48 253.15 838.93 252.33 839.17 251.95L839.29 251.95L839.29 253L840.36 253L840.36 243.81L839.25 243.81L839.25 247.2L839.17 247.2C838.94 246.83 838.52 246.02 837.18 246.02C835.45 246.02 834.24 247.39 834.24 249.57C834.24 251.76 835.45 253.15 837.17 253.14ZM835.34 249.55C835.34 248.11 835.99 247 837.32 247C838.6 247 839.28 248.02 839.29 249.55C839.28 251.1 838.58 252.16 837.32 252.16C836.01 252.16 835.34 251.01 835.34 249.55ZM845.14 253.14C846.56 253.15 847.59 252.44 847.91 251.39L846.74 251.39C846.49 251.81 845.97 252.17 845.14 252.17C843.92 252.17 843.07 251.38 843.01 249.92L848.01 249.92L848.01 249.46C848.02 246.91 846.49 246.02 845.04 246.02C843.17 246.02 841.92 247.49 841.92 249.61C841.92 251.72 843.15 253.15 845.14 253.14ZM843.02 248.99C843.09 247.92 843.85 246.98 845.04 246.98C846.18 246.98 846.9 247.84 846.91 248.99ZM849.43 253L850.52 253L850.52 248.66C850.52 247.73 851.26 247.05 852.25 247.05C852.54 247.05 852.83 247.1 852.91 247.12L852.91 246.02C852.78 246 852.5 246 852.34 245.99C851.53 246 850.81 246.46 850.56 247.16L850.49 247.16L850.49 246.11L849.43 246.11ZM863.65 246.68L864.83 246.68C864.49 244.9 862.99 243.68 861.05 243.68C858.69 243.68 857.02 245.5 857.02 248.4C857.02 251.31 858.67 253.13 861.13 253.13C863.31 253.13 864.88 251.66 864.88 249.38L864.88 248.39L861.37 248.39L861.37 249.39L863.77 249.39C863.75 251.03 862.67 252.05 861.13 252.06C859.42 252.05 858.14 250.77 858.13 248.4C858.14 246.03 859.42 244.75 861.05 244.75C862.36 244.75 863.26 245.5 863.65 246.68ZM866.46 253L867.55 253L867.55 248.66C867.55 247.73 868.29 247.05 869.28 247.05C869.56 247.05 869.85 247.1 869.94 247.12L869.94 246.02C869.81 246 869.53 246 869.36 245.99C868.55 246 867.83 246.46 867.59 247.16L867.51 247.16L867.51 246.11L866.46 246.11ZM873.82 253.14C875.69 253.15 876.95 251.72 876.94 249.58C876.95 247.43 875.69 246.02 873.82 246.02C871.94 246.02 870.67 247.43 870.67 249.58C870.67 251.72 871.94 253.15 873.82 253.14ZM871.76 249.58C871.77 248.21 872.42 246.98 873.82 246.98C875.21 246.98 875.85 248.21 875.85 249.58C875.85 250.96 875.21 252.17 873.82 252.17C872.42 252.17 871.77 250.96 871.76 249.58ZM882.73 250.17C882.73 251.46 881.75 252.04 880.97 252.04C880.09 252.04 879.47 251.4 879.47 250.41L879.47 246.11L878.38 246.11L878.38 250.49C878.37 252.24 879.3 253.09 880.61 253.09C881.65 253.09 882.33 252.53 882.66 251.83L882.73 251.83L882.73 253L883.81 253L883.81 246.11L882.73 246.11ZM885.56 255.59L886.66 255.59L886.66 251.95L886.74 251.95C886.98 252.33 887.44 253.15 888.75 253.14C890.47 253.15 891.67 251.76 891.67 249.57C891.67 247.39 890.47 246.02 888.74 246.02C887.4 246.02 886.98 246.83 886.74 247.2L886.62 247.2L886.62 246.11L885.56 246.11ZM886.63 249.55C886.64 248.02 887.31 247 888.6 247C889.92 247 890.58 248.11 890.58 249.55C890.58 251.01 889.91 252.16 888.6 252.16C887.33 252.16 886.64 251.1 886.63 249.55Z" fill="#767A7E"/></g>
</svg>